<?xml version="1.0" encoding="utf-8"?>
<!-- Generator: Adobe Illustrator 27.0.1, SVG Export Plug-In . SVG Version: 6.00 Build 0)  -->
<svg version="1.1" id="Layer_1" xmlns="http://www.w3.org/2000/svg" xmlns:xlink="http://www.w3.org/1999/xlink" x="0px" y="0px"
	 viewBox="0 0 4000 4000" style="enable-background:new 0 0 4000 4000;" xml:space="preserve">
<style type="text/css">
	.st0{display:none;}
	.st1{display:inline;fill:#8C88ED;}
	.st2{display:inline;}
	.st3{fill:#FFFFFF;}
	.st4{fill:#62ED2E;}
	.st5{fill:#31C418;}
	.st6{opacity:0.7;}
	.st7{fill:#371A45;}
	.st8{fill:none;stroke:#371A45;stroke-width:28.882;stroke-linecap:round;stroke-miterlimit:10;}
	.st9{opacity:0.3;}
	.st10{fill:none;stroke:#371A45;stroke-width:28.882;stroke-linecap:round;stroke-linejoin:round;stroke-miterlimit:10;}
	.st11{fill:none;}
	.st12{opacity:0.35;}
	.st13{fill:#111A28;}
	.st14{opacity:0.5;}
	.st15{fill:none;stroke:#371A45;stroke-width:22.9032;stroke-linecap:round;stroke-linejoin:round;stroke-miterlimit:10;}
	.st16{fill:none;stroke:#371A45;stroke-width:36.6451;stroke-linecap:round;stroke-linejoin:round;stroke-miterlimit:10;}
	.st17{opacity:0.2;}
	.st18{fill:#22A7F0;}
	.st19{fill:#E8E8E8;}
	.st20{fill:#220F2D;}
</style>
<g>
	<g class="st0">
		<rect class="st1" width="4000" height="4000"/>
	</g>
	<g>
		<g class="st0">
			<g class="st2">
				<path class="st3" d="M1360.62,3569.61c0,0-26.74,8.49-61.49,9.93c-1.17,45.56-10.03,80.98-10.03,80.98s-8.86-35.42-10.03-80.98
					c-34.75-1.44-61.49-9.93-61.49-9.93s26.74-8.49,61.49-9.93c1.17-45.52,10.03-80.95,10.03-80.95s8.86,35.42,10.03,80.95
					C1333.88,3561.12,1360.62,3569.61,1360.62,3569.61z"/>
			</g>
			<g class="st2">
				<path class="st3" d="M1188.44,3055.04c0,0-18.33,5.82-42.17,6.81c-0.81,31.24-6.88,55.53-6.88,55.53s-6.07-24.29-6.88-55.53
					c-23.83-0.99-42.17-6.81-42.17-6.81s18.33-5.82,42.17-6.81c0.81-31.22,6.88-55.51,6.88-55.51s6.07,24.29,6.88,55.51
					C1170.11,3049.22,1188.44,3055.04,1188.44,3055.04z"/>
			</g>
			<g class="st2">
				<path class="st3" d="M3590.02,1443.52c0,0-26.74,8.49-61.49,9.93c-1.17,45.56-10.03,80.98-10.03,80.98s-8.86-35.42-10.03-80.98
					c-34.75-1.44-61.49-9.93-61.49-9.93s26.74-8.49,61.49-9.93c1.17-45.52,10.03-80.95,10.03-80.95s8.86,35.42,10.03,80.95
					C3563.29,1435.03,3590.02,1443.52,3590.02,1443.52z"/>
			</g>
			<g class="st2">
				<path class="st3" d="M3598.07,2210.15c0,0-26.74,8.49-61.49,9.93c-1.17,45.56-10.03,80.98-10.03,80.98s-8.86-35.42-10.03-80.98
					c-34.75-1.44-61.49-9.93-61.49-9.93s26.74-8.49,61.49-9.93c1.17-45.52,10.03-80.95,10.03-80.95s8.86,35.42,10.03,80.95
					C3571.33,2201.66,3598.07,2210.15,3598.07,2210.15z"/>
			</g>
			<g class="st2">
				<path class="st3" d="M517.96,1416.99c0,0-26.74,8.49-61.49,9.93c-1.17,45.56-10.03,80.98-10.03,80.98s-8.86-35.42-10.03-80.98
					c-34.75-1.44-61.49-9.93-61.49-9.93s26.74-8.49,61.49-9.93c1.17-45.52,10.03-80.95,10.03-80.95s8.86,35.42,10.03,80.95
					C491.22,1408.5,517.96,1416.99,517.96,1416.99z"/>
			</g>
			<g class="st2">
				<path class="st3" d="M998.61,2221.35c0,0-21.02,6.67-48.34,7.81c-0.92,35.82-7.89,63.67-7.89,63.67s-6.96-27.85-7.89-63.67
					c-27.32-1.13-48.34-7.81-48.34-7.81s21.02-6.67,48.34-7.81c0.92-35.79,7.89-63.64,7.89-63.64s6.96,27.85,7.89,63.64
					C977.59,2214.67,998.61,2221.35,998.61,2221.35z"/>
			</g>
			<g class="st2">
				<path class="st3" d="M505.88,3193.96c0,0-21.02,6.67-48.34,7.81c-0.92,35.82-7.89,63.67-7.89,63.67s-6.96-27.85-7.89-63.67
					c-27.32-1.13-48.34-7.81-48.34-7.81s21.02-6.67,48.34-7.81c0.92-35.79,7.89-63.64,7.89-63.64s6.96,27.85,7.89,63.64
					C484.86,3187.29,505.88,3193.96,505.88,3193.96z"/>
			</g>
			<g class="st2">
				<path class="st3" d="M1432.29,747.93c0,0-21.02,6.67-48.34,7.81c-0.92,35.82-7.89,63.67-7.89,63.67s-6.96-27.85-7.89-63.67
					c-27.32-1.13-48.34-7.81-48.34-7.81s21.02-6.67,48.34-7.81c0.92-35.79,7.89-63.64,7.89-63.64s6.96,27.85,7.89,63.64
					C1411.27,741.26,1432.29,747.93,1432.29,747.93z"/>
			</g>
			<g class="st2">
				<path class="st3" d="M2033.63,418.73c0,0-21.02,6.67-48.34,7.81c-0.92,35.82-7.89,63.67-7.89,63.67s-6.96-27.85-7.89-63.67
					c-27.32-1.13-48.34-7.81-48.34-7.81s21.02-6.67,48.34-7.81c0.92-35.79,7.89-63.64,7.89-63.64s6.96,27.85,7.89,63.64
					C2012.61,412.06,2033.63,418.73,2033.63,418.73z"/>
			</g>
			<g class="st2">
				<path class="st3" d="M728.39,616.55c0,0-21.02,6.67-48.34,7.81c-0.92,35.82-7.89,63.67-7.89,63.67s-6.96-27.85-7.89-63.67
					c-27.32-1.13-48.34-7.81-48.34-7.81s21.02-6.67,48.34-7.81c0.92-35.79,7.89-63.64,7.89-63.64s6.96,27.85,7.89,63.64
					C707.37,609.88,728.39,616.55,728.39,616.55z"/>
			</g>
			<g class="st2">
				<path class="st3" d="M459.5,2572.14c0,0-21.02,6.67-48.34,7.81c-0.92,35.82-7.89,63.67-7.89,63.67s-6.96-27.85-7.89-63.67
					c-27.32-1.13-48.34-7.81-48.34-7.81s21.02-6.67,48.34-7.81c0.92-35.79,7.89-63.64,7.89-63.64s6.96,27.85,7.89,63.64
					C438.48,2565.47,459.5,2572.14,459.5,2572.14z"/>
			</g>
			<g class="st2">
				<path class="st3" d="M1226.98,1431.66c0,0-21.02,6.67-48.34,7.81c-0.92,35.82-7.89,63.67-7.89,63.67s-6.96-27.85-7.89-63.67
					c-27.32-1.13-48.34-7.81-48.34-7.81s21.02-6.67,48.34-7.81c0.92-35.79,7.89-63.64,7.89-63.64s6.96,27.85,7.89,63.64
					C1205.96,1424.98,1226.98,1431.66,1226.98,1431.66z"/>
			</g>
			<g class="st2">
				<path class="st3" d="M2946.1,3508.18c0,0-21.02,6.67-48.34,7.81c-0.92,35.82-7.89,63.67-7.89,63.67s-6.96-27.85-7.89-63.67
					c-27.32-1.13-48.34-7.81-48.34-7.81s21.02-6.67,48.34-7.81c0.92-35.79,7.89-63.64,7.89-63.64s6.96,27.85,7.89,63.64
					C2925.08,3501.51,2946.1,3508.18,2946.1,3508.18z"/>
			</g>
			<g class="st2">
				<path class="st3" d="M3256.6,2786.88c0,0-21.02,6.67-48.34,7.81c-0.92,35.82-7.89,63.67-7.89,63.67s-6.96-27.85-7.89-63.67
					c-27.32-1.13-48.34-7.81-48.34-7.81s21.02-6.67,48.34-7.81c0.92-35.79,7.89-63.64,7.89-63.64s6.96,27.85,7.89,63.64
					C3235.58,2780.21,3256.6,2786.88,3256.6,2786.88z"/>
			</g>
			<g class="st2">
				<path class="st3" d="M3416.98,815.95c0,0-21.02,6.67-48.34,7.81c-0.92,35.82-7.89,63.67-7.89,63.67s-6.96-27.85-7.89-63.67
					c-27.32-1.13-48.34-7.81-48.34-7.81s21.02-6.67,48.34-7.81c0.92-35.79,7.89-63.64,7.89-63.64s6.96,27.85,7.89,63.64
					C3395.96,809.28,3416.98,815.95,3416.98,815.95z"/>
			</g>
			<g class="st2">
				<path class="st3" d="M2893.76,1733.36c0,0-21.02,6.67-48.34,7.81c-0.92,35.82-7.89,63.67-7.89,63.67s-6.96-27.85-7.89-63.67
					c-27.32-1.13-48.34-7.81-48.34-7.81s21.02-6.67,48.34-7.81c0.92-35.79,7.89-63.64,7.89-63.64s6.96,27.85,7.89,63.64
					C2872.74,1726.68,2893.76,1733.36,2893.76,1733.36z"/>
			</g>
			<g class="st2">
				<path class="st3" d="M2979.33,449.35c0,0-21.02,6.67-48.34,7.81c-0.92,35.82-7.89,63.67-7.89,63.67s-6.96-27.85-7.89-63.67
					c-27.32-1.13-48.34-7.81-48.34-7.81s21.02-6.67,48.34-7.81c0.92-35.79,7.89-63.64,7.89-63.64s6.96,27.85,7.89,63.64
					C2958.31,442.67,2979.33,449.35,2979.33,449.35z"/>
			</g>
			<g class="st2">
				<path class="st3" d="M3673.08,3106.63c0,0-21.02,6.67-48.34,7.81c-0.92,35.82-7.89,63.67-7.89,63.67s-6.96-27.85-7.89-63.67
					c-27.32-1.13-48.34-7.81-48.34-7.81s21.02-6.67,48.34-7.81c0.92-35.79,7.89-63.64,7.89-63.64s6.96,27.85,7.89,63.64
					C3652.06,3099.95,3673.08,3106.63,3673.08,3106.63z"/>
			</g>
		</g>
		<g>
			<g>
				<g>
					<g>
						<path class="st4" d="M2852.28,1880.67c-19.24,65.18-59.32,134.99-127.66,211.08l-127.57-109.34l-180.34-154.64l-169.48-167.29
							c66.37-98.76,153.86-166.92,271.27-191.7l189.32-29.04C2811.61,1574.32,2902.07,1711.83,2852.28,1880.67z"/>
					</g>
					<g>
						<path class="st5" d="M2666.79,1721.9c49.64,28.23,62.22,69.17,57.81,115.93c-39.42,18.89-73.15,46.86-98.04,88.96l-23.6-13.32
							L2666.79,1721.9z"/>
					</g>
					<g>
						<path class="st5" d="M2852.28,1880.67c-19.24,65.18-59.32,134.99-127.66,211.08l-127.57-109.34l82.13-107.51
							C2726.73,1990.93,2783.85,1904.81,2852.28,1880.67z"/>
					</g>
					<g>
						<path class="st5" d="M2767.59,1521.18l-13.01-18.6c-71.73-9.85-186.94,0.64-298.7,9.53c-31.84,35.5-110.9,47.5-165.41,92.03
							c-17.91,14.61-33.16,32.71-43.24,56.34l169.48,167.29l54.97-72.17l-18.89,58.46l150.18,73.07
							c-44.44-85.11-60.74-110.02-10.89-235.5c21.04-52.97,64.57-93.79,118.65-111.79
							C2729.11,1533.72,2748.14,1527.6,2767.59,1521.18z"/>
					</g>
					<g class="st6">
						<path class="st3" d="M2707.81,1439.74l-26.94,4.13c103.57,134.35,193.63,271.68,143.93,440.22
							c-17.93,60.76-54,125.54-114.16,195.67l13.98,11.98c68.34-76.08,108.42-145.89,127.66-211.08
							C2902.07,1711.83,2811.61,1574.32,2707.81,1439.74z"/>
					</g>
					<g>
						<path class="st7" d="M2724.6,2103.18c-2.64,0-5.29-0.91-7.45-2.76l-307.88-263.96c-0.2-0.17-0.4-0.35-0.59-0.54
							l-169.52-167.29c-3.92-3.87-4.53-9.97-1.46-14.54c72.59-108.01,163.66-172.29,278.4-196.53c0.21-0.04,0.42-0.08,0.63-0.11
							l189.33-29.01c4.07-0.65,8.25,1.02,10.8,4.32c149.71,194.06,263.6,391.07,16.25,666.62
							C2730.87,2101.9,2727.75,2103.18,2724.6,2103.18z M2424.49,1819.33l299.02,256.37c224.12-255.87,124.6-434.44-20.65-623.61
							l-182.32,27.93c-105.7,22.4-190.34,81-258.47,179.01L2424.49,1819.33z"/>
					</g>
					<g>
						<path class="st7" d="M2745.51,1832.54c-32.28,18.52-65.96,38.3-86.34,69.74c-20.55,30.91-23.4,69.2-20.62,105.52
							c0.7,15.04-21.43,16.69-22.86,1.59c-2.6-65.42,16.67-121.32,73.62-157.73c16.48-11.05,33.87-19.94,51.05-28.67
							C2746.55,1819.96,2751.52,1828.94,2745.51,1832.54L2745.51,1832.54z"/>
					</g>
					<g>
						<path class="st7" d="M2686.38,1689.26l-72.61,217.68c-1.98,5.94-8.4,9.14-14.33,7.16c-1.95-0.65-3.55-1.76-4.88-3.19
							c-40.42-43.99-92.43-80.16-152.62-86.84c-6.62-0.68-11.27-7.07-9.9-13.58c3.56-17.28,8.07-34.77,17.23-51.51
							c9.04-17.57,26.81-33.45,47.59-35.53c0,0-9.89,13.31-9.89,13.31c-5.01-39.19,16.79-76.01,41.76-103.63
							c2.73-3.09,7.74,0.55,5.46,4.11c-18.43,28.23-33.9,62.43-24.66,95.63c1.55,5.8-2.16,11.76-8.04,12.94
							c-32.23,4.36-40.68,41.3-46.98,69.08c0,0-9.9-13.58-9.9-13.58c32.79,3.78,64.48,15.37,92.4,32.2
							c28.04,16.8,52.56,38.36,74.35,61.83c0.02,0.01-19.2,3.97-19.2,3.98l79.81-215.14
							C2675.53,1675.06,2689.33,1679.72,2686.38,1689.26L2686.38,1689.26z"/>
					</g>
					<g>
						<path class="st7" d="M2497.44,1723.4c31.45-0.83,64.73,12.74,81.75,39.86c1.23,1.82,0.75,4.28-1.06,5.51
							c-1.62,1.1-3.78,0.82-5.1-0.55c-19.37-21-46.74-27.14-73.98-21.98C2482.63,1748.31,2480.85,1723.68,2497.44,1723.4
							L2497.44,1723.4z"/>
					</g>
					<g>
						<path class="st7" d="M2412.46,1590.55c1.46,73.76,8.18,148.88,32.53,218.56c4.69,14.3-16.18,21.8-21.6,7.64
							c-11.44-36.96-17.87-74.97-21.45-112.9c-3.53-37.81-4.23-75.65-3.43-113.33C2398.82,1581.59,2412.15,1581.5,2412.46,1590.55
							L2412.46,1590.55z"/>
					</g>
				</g>
				<g>
					<g>
						<g>
							<path class="st4" d="M2803.31,1143.05"/>
						</g>
						<g>
							<path class="st8" d="M2803.3,1143.06"/>
						</g>
						<g>
							<path class="st3" d="M2214.63,1390.48"/>
						</g>
						<g class="st9">
							<path class="st7" d="M2214.63,1390.48"/>
						</g>
						<g class="st9">
							<path class="st7" d="M2394.53,1372.75"/>
						</g>
						<g>
							<path class="st10" d="M2214.62,1390.47"/>
						</g>
						<g>
							<path class="st4" d="M2870.29,1143.43"/>
						</g>
						<g>
							<path class="st4" d="M2764.4,1127.37"/>
						</g>
						<g>
							<path class="st5" d="M2764.4,1127.37"/>
						</g>
						<g>
							<path class="st11" d="M2764.41,1127.38"/>
						</g>
						<g>
							<path class="st11" d="M2870.29,1143.43"/>
						</g>
						<g>
							<path class="st8" d="M2266.33,1542.53"/>
						</g>
						<g>
							<path class="st8" d="M2545.67,1512.11"/>
						</g>
						<g>
							<path class="st4" d="M2825.54,1470.31c-59.67,27.26-125.99,43.4-188.27,48.19l-101.28,7.1
								c-138.62-4.46-219.3-65.65-260.83-147.93c-48.21-95.6-43.55-219.65-15.41-316.16c63.42-217.45,278.21-365.84,495.62-302.4
								c217.45,63.42,318.75,304.02,255.31,521.43C2985.44,1367.13,2912.6,1430.56,2825.54,1470.31z"/>
						</g>
						<g>
							<path class="st5" d="M2825.54,1470.31c-59.67,27.26-125.99,43.4-188.27,48.19l-101.28,7.1
								c-138.62-4.46-219.3-65.65-260.83-147.93c28.66,30.39,85.12,76.88,176.84,99.28
								C2556.42,1502.43,2709.86,1501.01,2825.54,1470.31z"/>
						</g>
						<g class="st6">
							<path class="st3" d="M2910.81,925.36c4.1,9.89,4.46,18.49,0.26,24.5c-11.74,16.77-54.72,6.95-96.04-21.94
								c-41.29-28.9-65.23-65.92-53.48-82.71c5.86-8.38,19.49-10.12,36.82-6.21c-18.8-9.28-38.74-17.07-59.75-23.2
								c-207.42-60.51-412.45,71.79-485.94,272.89c1.58-7.85,3.51-15.71,5.8-23.57c63.42-217.42,278.19-365.83,495.63-302.4
								c217.42,63.42,318.71,304.03,255.29,521.43c-2.29,7.86-4.91,15.54-7.77,23.01C3032.23,1168.6,2997.86,1024.44,2910.81,925.36
								z"/>
						</g>
						<g>
							<path class="st7" d="M2636.65,1510.5c22.97-12.32,46.96-12.87,71.3-18.85c23.66-5.44,46.98-12.24,69.77-20.4
								c87.49-31.88,176.83-88.81,211.51-178.45c83.57-235.79-53.92-517.58-318.72-531.95
								c-198.26-11.31-368.59,154.55-403.93,343.04c-29.15,134.77-4.49,308.2,131.63,373.9c26.18,13.08,55.23,21.7,84.34,26.6
								c17.99,2.37,36.49,5.41,53.34,13.2c7.24,2.47,7.19,13.46,0.17,16.03c-26.14,10.2-51.86,3.72-77.8-0.97
								c-51.51-10.55-101.64-33.5-140.55-69.72c-98.6-91.96-110.29-241.28-84.22-365.99c51.47-264.29,332.72-455.43,588.97-328.89
								c167.8,80.82,248.01,282.51,216.49,460.74c-12.13,83.45-47.44,148.3-113.56,201.03c-61.57,48.6-134.58,78.53-210.59,93.95
								c-25.15,4.39-50.63,11.33-76.92,2.72C2630.63,1524.32,2629.91,1513.69,2636.65,1510.5L2636.65,1510.5z"/>
						</g>
						<g>
							<path class="st7" d="M2278.57,1005.21c-27.41,21.54-60.26,88.45-38.19,174.26c22.07,85.82,97.61,114.23,128.49,87.73
								c23.71-20.35,52.09-84.61,30.03-170.43C2376.82,1010.95,2306.64,983.15,2278.57,1005.21z"/>
						</g>
						<g class="st6">
							<path class="st3" d="M2388.9,1239.79c7.1-29.19,8.52-66.35-2.39-108.78c-22.07-85.82-92.25-113.64-120.32-91.58
								c-9.26,7.27-19.15,19.74-27.33,36.37c8.47-34.03,24.89-58.96,39.7-70.6c28.07-22.05,98.25,5.76,120.33,91.56
								C2414.71,1158.24,2404.6,1208.65,2388.9,1239.79z"/>
						</g>
						<g class="st12">
							<path class="st13" d="M2368.86,1267.21c-30.89,26.5-106.43-1.93-128.48-87.73c-16.15-62.77-2.91-115.42,16.09-147.59
								c-4.85,26.53-4.77,57.73,4.03,91.94c22.05,85.82,97.59,114.25,128.48,87.73c4.9-4.2,10-10.3,14.81-18.07
								C2397.48,1229.61,2382.4,1255.58,2368.86,1267.21z"/>
						</g>
						<g>
							<path class="st7" d="M2753.48,1178.75c13.99,35.79,3.05,110.28-77.79,160.77s-178.61,19.33-192.87-22.71
								c-10.95-32.28,2.86-101.6,83.7-152.09S2739.15,1142.1,2753.48,1178.75z"/>
						</g>
						<g class="st6">
							<path class="st3" d="M2747.27,1260.66c2.75-18.58,0.87-35.18-3.88-47.32c-14.33-36.65-106.12-64.53-186.96-14.04
								c-40.09,25.02-63.7,54.71-75.97,82.18c4.73-34.94,28.26-80.67,86.06-116.77c80.84-50.47,172.63-22.61,186.96,14.04
								C2761.03,1198.06,2761.33,1228.64,2747.27,1260.66z"/>
						</g>
						<g class="st12">
							<path class="st13" d="M2675.68,1339.52c-80.82,50.48-178.6,19.33-192.86-22.71c-6.24-18.44-4.41-48.96,13.36-81.16
								c-0.23,9.35,0.96,17.64,3.22,24.31c14.26,42.06,112.04,73.21,192.86,22.73c32.23-20.14,53.36-44.07,66.23-67.86
								C2756.53,1252.88,2734.78,1302.61,2675.68,1339.52z"/>
						</g>
						<g>
							<path class="st7" d="M2340.38,1291.24c-8.13,0-16.72-1.36-25.51-4.13c-32.47-10.22-72.76-42.92-88.48-104.04
								c-24.19-94.07,13.7-165.99,43.26-189.22l0,0c14.34-11.27,35.23-13.43,57.33-5.95c31.15,10.55,70.08,43.75,85.9,105.27
								c24,93.32-7.54,161.75-34.6,184.98C2368.2,1286.8,2355.04,1291.24,2340.38,1291.24z M2287.49,1016.56
								c-20.11,15.8-54.67,75.54-33.13,159.31c12.77,49.67,44.11,75.79,69.18,83.68c14.69,4.63,28.12,3.38,35.92-3.32
								c17.51-15.04,46.78-72.92,25.44-155.87c-12.95-50.36-43.2-76.98-67.2-85.11C2305.23,1011.03,2293.92,1011.51,2287.49,1016.56
								L2287.49,1016.56z"/>
						</g>
						<g>
							<path class="st7" d="M2584.64,1379.93c-21.87,0-41.87-3.79-58.01-9.55c-29.57-10.55-50.52-28.39-57.49-48.94
								c-12.22-36.03,1.33-113.76,89.72-168.97c47.58-29.72,105.25-37.76,154.28-21.54c27.12,8.98,46.72,24.5,53.78,42.56
								c15.32,39.17,6.17,122.21-83.59,178.27C2650.49,1372.28,2615.68,1379.93,2584.64,1379.93z M2660.87,1151.81
								c-26.59,0-57.25,6.77-86.7,25.16c-77.02,48.1-85.59,111.86-77.67,135.2c3.99,11.78,19.26,23.66,39.84,31.01
								c32.68,11.67,84.45,13.61,131.69-15.91c70.97-44.32,84.82-110.45,72-143.26l0,0c-2.99-7.63-14-18.38-35.98-25.66
								C2692.02,1154.36,2677.21,1151.81,2660.87,1151.81z"/>
						</g>
						<g>
							<path class="st7" d="M2413.99,1298.11c1.19,6.13-0.61,11.64-4.02,12.3c-3.41,0.66-7.13-3.78-8.32-9.91
								c-1.19-6.13,0.61-11.64,4.02-12.3C2409.08,1287.54,2412.8,1291.97,2413.99,1298.11z"/>
						</g>
						<g>
							<path class="st7" d="M2423.64,1301.44c-4.72,4.09-6.7,9.54-4.42,12.16c2.27,2.62,7.94,1.43,12.66-2.67
								c4.72-4.09,6.7-9.54,4.42-12.16C2434.02,1296.15,2428.35,1297.34,2423.64,1301.44z"/>
						</g>
						<g>
							<path class="st4" d="M2615.05,1027.39l44.29,42.77c10.53-17.78,20.56-31.92,30.04-42.95c38.07-44.37,67.67-39.23,87.59-22.66
								c27.15,22.6,18.28,76.88,18.28,76.88c-32.92,22.13-6.82,57.73,20.41,58.64c23.58,0.8,42.75-31.88,18.48-57.32
								c2.3-10.78,18.1-105.41-41.9-132.66c-59.18-26.83-111.46,6.24-143.62,37.09C2627.96,1007,2615.63,1025.89,2615.05,1027.39z"
								/>
						</g>
						<g class="st14">
							<path class="st3" d="M2626.44,1011.44c1.24-1.22,2.51-2.45,3.79-3.69c33.98-32.6,88.69-66.3,151.76-39.2
								c52.16,22.41,37.04,108.92,34.6,120.33c16.11,14.21,19.66,33.89,20.95,40.92c9.88-11.51,12.13-30.78-3.41-47.05
								c2.3-10.78,18.1-105.41-41.9-132.66c-59.18-26.83-111.46,6.24-143.62,37.09C2639.5,995.91,2632.03,1004.47,2626.44,1011.44z"
								/>
						</g>
						<g>
							<path class="st5" d="M2615.05,1027.39c0,0-0.57,16.96,14.93,30.15c15.5,13.19,29.36,12.62,29.36,12.62
								c10.53-17.78,20.56-31.92,30.04-42.95c-19.51-0.54-47.31-6.62-40.77-40.02C2627.96,1007,2615.63,1025.89,2615.05,1027.39z"/>
						</g>
						<g>
							<path class="st7" d="M2609.69,1025.37c0.83-1.98,2.31-4.29,3.42-6.14c24.59-37.4,58.72-70.86,102.45-84.67
								c31.72-9.77,68.25-5.96,96.03,13.42c41.55,32,42.66,90.23,33.74,137.16c0,0-2.91-10.31-2.91-10.31
								c24.31,23.17,16.62,67.44-17.86,75.8c-45.83,7.63-79.16-50.89-35.68-78.72c0,0-4.91,7.66-4.91,7.66
								c1.62-21.34,1.72-44.89-10.37-61.91c-13.2-16.57-34.62-18.71-52.19-6.85c-23.86,15.03-41.01,38.82-57.13,62.26
								c-3.97,5.99-13.19,0.59-9.86-5.83c14.37-26.71,30.97-54.09,56.45-72.54c24.91-18.91,60.17-16.49,80.79,8.31
								c14.73,18.07,17.68,42.05,16.7,64.09c-1.04,7.56,0.47,18.66-6.7,23.83c-31.32,19.04,18.54,57.41,30.97,24.95
								c3.15-8.33,0.49-17.71-6.78-25.23c-2.74-2.84-3.7-6.72-2.91-10.31c6.06-42.81,5.81-105.25-42.27-122.53
								c-18.97-7.49-39.58-8.81-59.51-3.5c-40.45,11.11-74.24,41.18-99.73,73.86c0,0-0.73,1.02-0.73,1.02l-0.3,0.44l-0.1,0.14
								C2618.18,1035.37,2607.37,1033.67,2609.69,1025.37L2609.69,1025.37z"/>
						</g>
						<g>
							<path class="st4" d="M2117.73,836.81c12.65,21.42,43.37,11.41,51.85-11.63c7.7-5.93,154.2-73.4,182.01,64
								c3.22,15.97,4.85,34.73,4.46,56.68l56.18,2.43c0.74-1.56,0.6-27.27-7.58-59.54c-9.88-38.94-31.51-87.37-77.49-114.3
								c-70.61-41.34-168.34,14.86-177.13,19.25C2127.22,790.89,2101.84,809.94,2117.73,836.81z"/>
						</g>
						<g>
							<path class="st4" d="M2117.73,836.81c12.65,21.42,43.37,11.41,51.85-11.63c7.7-5.93,154.2-73.4,182.01,64
								c3.22,15.97,4.85,34.73,4.46,56.68l56.18,2.43c0.74-1.56,0.6-27.27-7.58-59.54c-9.88-38.94-31.51-87.37-77.49-114.3
								c-70.61-41.34-168.34,14.86-177.13,19.25C2127.22,790.89,2101.84,809.94,2117.73,836.81z"/>
						</g>
						<g class="st14">
							<path class="st3" d="M2112.83,819.24c7.18-3.95,29.16-13.97,40.02-5.96c9.49-4.74,99.3-64.04,175.46-19.44
								c44.11,25.83,67.43,70.03,79.54,109.05c-0.9-4.54-1.95-9.27-3.19-14.15c-9.88-38.94-31.51-87.37-77.49-114.3
								c-70.61-41.34-168.34,14.86-177.13,19.25C2132.63,791.57,2113.72,802.15,2112.83,819.24z"/>
						</g>
						<g>
							<path class="st5" d="M2351.59,889.18c3.22,15.97,4.85,34.73,4.46,56.68c0,0,12.84,12.63,30.55,13.14
								c17.71,0.51,25.63-10.72,25.63-10.72c0.74-1.56,0.6-27.27-7.58-59.54C2397.27,910.21,2379.86,923.5,2351.59,889.18z"/>
						</g>
						<g>
							<path class="st7" d="M2407.06,945.78c-0.26,0.28-0.42,1.04-0.42,1.07l-0.01-0.51l-0.03-1.23
								c-5.18-58.92-27.83-123.09-79.01-156.76c-38.43-25.76-87.83-18-129.29-3.25c-14.61,5.02-29.33,11.87-43.17,18.83
								c-2.09,1.03-4.34,1.37-6.51,1.12c-14.89-1.99-31.21,9.98-21.51,25.1c7.88,14.98,28.08,3.23,31.83-9.31
								c1.17-3.36,4.07-5.23,6.93-6.9c5-2.89,10.33-5.24,15.6-7.42c118.72-45.43,189.56,16.32,180.28,139.45
								c-0.53,7.22-11.19,7.09-11.45-0.2c-1.42-43.16-9.09-96.39-48.32-119.79c-37.51-21.13-89.04-7.97-125.46,8.29
								c0,0,3.78-5.13,3.78-5.13c-7.77,21.35-32.48,37.24-55.35,28.46c-15.74-6.95-23.4-21.63-23.6-38.48
								c0.34-16.49,13.68-30.04,28.37-34.58c6.95-2.31,14.31-3.1,21.69-2.22l-6.5,1.12c29.34-16.4,60.76-28.86,94.24-34.06
								c116-20.56,180.62,90.56,179.38,192.75c-0.06,0.9-0.18,4.13-0.32,5.07C2418.02,957.4,2403.79,955.3,2407.06,945.78
								L2407.06,945.78z"/>
						</g>
						<g>
							<path class="st7" d="M2533.13,1101.9c5.57,30.34,53.32,9.2,72.63,3.67c15.35-5.13,31.65-10.13,48.76-11.56
								c17.06-1.58,34.58,0.9,50.23,6.99c2.37,0.92,3.54,3.58,2.62,5.95c-0.83,2.14-3.09,3.3-5.25,2.83
								c-15.17-3.2-30.55-3.62-45.74-0.96c-35.02,3.19-110.37,53.81-131.74,7.03c-1.65-5.11-3.62-19.58,4.87-18.45
								C2531.73,1097.89,2532.9,1099.84,2533.13,1101.9L2533.13,1101.9z"/>
						</g>
						<g>
							<path class="st7" d="M2465.68,1075.54c-9.4,21.26-33.06,18.94-45.75,2.22c-16.76-22.48-26.83-50.23-45.31-70.87
								c-8.68-9.98-19.08-18.15-31.32-23.75c-5-2.17-2.38-10.02,2.95-8.67c37.43,8.74,59.49,44.27,77.11,75.23
								c8.47,13.02,17.99,36.04,34.57,20.95C2461.53,1066.85,2467.75,1070.71,2465.68,1075.54L2465.68,1075.54z"/>
						</g>
						<g>
							<path class="st7" d="M2497.77,1382.88c-8.46,24.22-43.3,34.74-61.65,15c-4.49-4.47-16.96-23.01-8.06-25.79
								c1.91-0.58,3.81,0.16,5.01,1.58c7.68,8.38,15.67,16.72,26.87,16.6c10.77-0.55,20.8-6.7,30.41-12.77
								C2493.97,1374.58,2499.44,1378.6,2497.77,1382.88L2497.77,1382.88z"/>
						</g>
					</g>
					<g>
						<path class="st15" d="M2707.81,1439.75"/>
					</g>
				</g>
			</g>
			<g>
				<g>
					<g>
						<path class="st3" d="M2794.44,2687.3l88.78-181.59c17.02-34.81,19.51-75,6.79-111.6
							c-80.32-231.15-189.39-421.39-347.07-542.45c-20.36-15.63-44.28-25.98-69.51-30.69l-185.51-34.61l-168.72,291.24
							L2794.44,2687.3z"/>
					</g>
					<g>
						<path class="st16" d="M2740.8,2687.3"/>
					</g>
					<g>
						<path class="st7" d="M2794.44,2705.61c-4.5,0-8.88-1.66-12.28-4.72l-675.24-609.7c-6.42-5.8-7.91-15.3-3.57-22.78
							l168.72-291.24c3.89-6.71,11.61-10.24,19.21-8.83l185.51,34.61c28.35,5.29,55.09,17.11,77.31,34.17
							c148.46,113.99,264,294.21,353.23,550.97c14.2,40.88,11.42,86.68-7.64,125.66l-88.78,181.59c-2.52,5.17-7.33,8.85-12.98,9.94
							C2796.76,2705.51,2795.6,2705.61,2794.44,2705.61z M2142.49,2073.93l646.18,583.46l78.1-159.73
							c14.79-30.27,16.96-65.83,5.94-97.54c-86.8-249.79-198.32-424.44-340.92-533.93c-17.67-13.56-39.01-22.97-61.71-27.21
							l-172.79-32.24L2142.49,2073.93z"/>
					</g>
					<g class="st17">
						<path class="st7" d="M2287.92,2265.8l172.61-313.43c19.07-34.63,65.47-42.05,94.62-15.35
							c127.03,116.32,240.64,276.31,340.48,478.41l-128.28,342.02L2287.92,2265.8z"/>
					</g>
				</g>
				<g>
					<g>
						<g>
							<path class="st3" d="M2039.04,3038.48c194.91,145.69,517.38,147.26,629.84-19.93l-244.82-94.48L2039.04,3038.48z"/>
						</g>
						<g class="st17">
							<path class="st7" d="M2516.2,3092.51l42.59,16.43c45.41-20.98,83.58-51,110.08-90.4l-244.82-94.48l-385.01,114.41
								c44.2,33.04,94.97,58.64,148.35,76.56l105.68-31.4C2366.38,3061.86,2444.85,3064.98,2516.2,3092.51z"/>
						</g>
						<g>
							<path class="st3" d="M1262.62,2597.17c-38.5,186.2,25.19,285.48,178.65,258.76l-32.1-201.21L1262.62,2597.17z"/>
						</g>
						<g class="st17">
							<path class="st7" d="M1262.62,2597.17c-38.5,186.2,25.19,285.48,178.65,258.76l-32.1-201.21L1262.62,2597.17z"/>
						</g>
						<g>
							<path class="st7" d="M2374.89,3164.23c-123.02,0-252.04-40.23-346.82-111.07c-5.55-4.15-8.28-11.07-7.07-17.9
								s6.18-12.37,12.82-14.35l385.01-114.41c3.88-1.16,8.03-0.99,11.82,0.47l244.82,94.48c5.2,2.01,9.2,6.27,10.88,11.59
								c1.68,5.32,0.84,11.11-2.27,15.73c-44.37,65.97-123.07,111.52-221.61,128.27
								C2434.01,3161.88,2404.62,3164.23,2374.89,3164.23z M2081.12,3045.09c107.67,67.38,250.81,96.97,375.21,75.83
								c78.68-13.38,142.79-46.45,183.26-94.03l-216.3-83.48L2081.12,3045.09z"/>
						</g>
						<g>
							<path class="st7" d="M1395.35,2878.48c-48.4,0-87.77-14.59-115.44-43.14c-45.96-47.43-58.14-131.07-35.23-241.87
								c1.09-5.29,4.47-9.83,9.22-12.4c4.75-2.56,10.4-2.91,15.42-0.94l146.55,57.55c6.04,2.37,10.37,7.76,11.4,14.17l32.09,201.21
								c1.58,9.89-5.08,19.22-14.95,20.94C1427.19,2876.99,1410.81,2878.48,1395.35,2878.48z M1276.52,2622.32
								c-14.83,87.46-4.68,152.03,29.7,187.51c25.19,25.99,63.52,36.26,114.01,30.62l-27.51-172.5L1276.52,2622.32z"/>
						</g>
						<g>
							<path d="M3295.66,3019.56"/>
						</g>
					</g>
					<g>
						<g>
							<path class="st3" d="M3334.67,2804.18c0,11.18-1.28,22.17-4.03,32.94c-6.32,24.74-24,44.75-47.36,55.01
								c-47.13,20.61-97.89,17.91-152.54-9.48c-96.47,217.49-332.23,246.26-706.7,87.03c-129.31,58.27-250.65,86.62-364.44,86.62
								c-3.53,0-7.1-0.05-10.63-0.09c-2.15-0.05-4.35-0.09-6.5-0.14c-2.79-0.05-5.59-0.14-8.38-0.27c-2.79-0.09-5.63-0.23-8.43-0.37
								c-5.63-0.28-11.22-0.64-16.81-1.05c-2.52-0.18-5.04-0.41-7.56-0.6c-2.15-0.23-4.31-0.41-6.46-0.59
								c-2.98-0.32-5.95-0.64-8.89-0.96c-3.48-0.37-6.92-0.78-10.35-1.24c-3.44-0.46-6.87-0.92-10.31-1.42
								c-13.05-1.88-25.97-4.17-38.8-6.83c-1.24-0.28-2.52-0.55-3.76-0.82c-2.79-0.55-5.59-1.19-8.34-1.83
								c-3.39-0.78-6.73-1.56-10.08-2.38c-3.34-0.82-6.69-1.65-9.99-2.56c-5.18-1.37-10.35-2.79-15.48-4.26
								c-2.06-0.59-4.08-1.19-6.14-1.83c-5.18-1.56-10.35-3.21-15.48-4.86c-1.83-0.6-3.66-1.24-5.54-1.88
								c-2.24-0.78-4.49-1.56-6.73-2.34c-5.82-2.02-11.59-4.17-17.36-6.37c-0.69-0.27-1.42-0.55-2.11-0.82
								c-3.21-1.24-6.46-2.52-9.67-3.85c-3.21-1.28-6.41-2.61-9.62-3.98c-2.7-1.15-5.45-2.34-8.15-3.53
								c-0.46-0.23-0.96-0.41-1.42-0.64c-3.21-1.37-6.37-2.84-9.53-4.31c-3.16-1.47-6.37-2.93-9.48-4.49
								c-3.16-1.51-6.32-3.07-9.48-4.63c-3.12-1.56-6.28-3.16-9.39-4.76c-28.26-14.7-55.98-31.51-83.09-50.43
								c-2.89-2.02-5.82-4.08-8.7-6.18c-2.98-2.11-5.96-4.31-8.93-6.5c-8.93-6.6-17.82-13.42-26.61-20.48
								c-2.93-2.34-5.86-4.72-8.79-7.15c-0.14-0.09-0.23-0.18-0.37-0.27c-2.79-2.34-5.59-4.63-8.38-7.01
								c-31.97-26.98-63.12-57.12-93.49-90.24c-2.75-2.98-5.45-5.95-8.11-8.98c-10.9-12.09-21.62-24.55-32.25-37.42
								c-5.59-6.73-11.13-13.56-16.63-20.52c-20.7-6.23-41.23-12.64-61.52-19.24c-2.52-0.82-5.04-1.65-7.56-2.52
								c-15.99-5.18-31.84-10.54-47.55-16.03c-9.53-3.34-19.01-6.73-28.45-10.12c-9.48-3.44-18.87-6.87-28.22-10.4
								c-9.34-3.48-18.64-7.05-27.9-10.67c-8.7-3.39-17.41-6.83-26.02-10.26c-1.69-0.69-3.34-1.33-4.99-2.02
								c-7.01-2.84-13.97-5.73-20.89-8.57c-3.21-1.33-6.41-2.66-9.57-4.03c-4.63-1.92-9.21-3.89-13.74-5.86
								c-4.95-2.11-9.89-4.21-14.84-6.46c-4.17-1.79-8.34-3.62-12.46-5.5c-3.53-1.51-7.05-3.07-10.54-4.72
								c-4.99-2.24-9.99-4.49-14.93-6.82c-4.03-1.79-8.02-3.62-12-5.54c-5.73-2.66-11.41-5.36-17.09-8.11
								c-2.15-0.96-4.26-2.02-6.41-3.11c-5.5-2.61-10.99-5.27-16.44-8.02c-3.34-1.6-6.64-3.25-9.94-4.95
								c-3.94-1.92-7.88-3.94-11.82-5.96c-4.99-2.52-10.03-5.08-14.98-7.7c-7.1-3.66-14.15-7.42-21.21-11.18
								c-2.24-1.19-4.49-2.43-6.73-3.62c-4.58-2.47-9.12-4.95-13.65-7.51c-1.51-0.78-3.02-1.6-4.49-2.47
								c-1.92-1.05-3.85-2.15-5.82-3.25c-1.01-0.5-1.97-1.05-2.98-1.69c-5.13-2.84-10.21-5.73-15.3-8.66
								c-0.69-0.37-1.33-0.73-1.97-1.15c-0.6-0.32-1.19-0.64-1.74-1.01c-2.79-1.6-5.59-3.21-8.34-4.86
								c-2.66-1.51-5.31-3.11-7.97-4.67c-1.56-0.87-3.11-1.83-4.72-2.79c-6.09-3.62-12.14-7.28-18.14-10.99
								c-1.05-0.64-2.06-1.28-3.11-1.92c-3.99-2.43-7.97-4.9-11.91-7.42v-0.05c-3.12-1.83-6.18-3.8-9.25-5.77
								c-5.63-3.57-11.22-7.15-16.77-10.76c-0.69-0.46-1.37-0.92-2.06-1.33c-1.97-1.28-3.89-2.56-5.86-3.89
								c-5.08-3.34-10.12-6.73-15.16-10.12c-0.14-0.09-0.27-0.18-0.41-0.27c-2.52-1.7-5.04-3.39-7.56-5.18
								c-1.15-0.73-2.29-1.51-3.44-2.34c-4.44-3.07-8.89-6.14-13.33-9.25c-6.83-4.81-13.65-9.66-20.43-14.57
								c-0.23-0.18-0.46-0.37-0.73-0.55c-6.46-4.72-12.87-9.44-19.24-14.2c-0.69-0.55-1.37-1.05-2.11-1.6
								c-19.47-14.66-38.48-29.73-57.12-45.21c-1.1-0.92-2.24-1.83-3.34-2.75c-6.05-5.04-12.05-10.17-18-15.3
								c-6.41-5.54-12.78-11.13-19.1-16.77c-4.26-3.8-8.52-7.65-12.78-11.63c-1.56-1.33-3.11-2.79-4.67-4.21
								c-0.41-0.37-0.87-0.78-1.28-1.19c-0.32-0.32-0.69-0.64-1.01-0.96c-5.86-5.4-11.68-10.86-17.45-16.4
								c-64.95-9.53-118.23-28.9-132.61-81.08c-2.75-10.08,2.29-20.66,11.82-24.87l12.41-5.45
								c-157.3-152.58-44.29-253.68,65.64-203.15c107.51,52.45,244.79,119.51,397.6,194.08l0.18,0.05c6.09,3.02,12.23,6,18.37,9.02
								c52.63,25.65,107,52.22,162.52,79.34c8.29-1.15,16.58-2.34,24.92-3.48c14.15-2.02,28.31-3.98,42.51-6l6.32-0.87
								c4.86-0.69,9.76-1.37,14.61-2.06l21.03-2.98c9.53-1.33,19.06-2.7,28.58-4.03c9.8-1.42,19.61-2.79,29.41-4.17
								c2.66-0.37,5.31-0.73,7.97-1.1c21.99-3.11,44.07-6.28,66.14-9.39c23.5-3.34,47.04-6.69,70.59-9.99
								c20.43-2.93,40.91-5.82,61.33-8.7c44.43-6.32,88.82-12.6,133.07-18.83c10.99-1.56,21.99-3.11,32.98-4.67
								c10.99-1.56,21.94-3.11,32.89-4.63c17.5-2.47,35-4.95,52.4-7.42c49.43-6.92,98.44-13.79,146.95-20.57
								c9.3-1.28,18.6-2.56,27.85-3.85c36.6-5.08,72.88-10.08,108.74-15.02c14.7-1.97,29.32-3.99,43.84-5.96
								c32.66-4.49,64.95-8.84,96.79-13.1c10.08-1.37,20.11-2.7,30.09-4.03c3.3-0.46,6.55-0.87,9.85-1.33
								c6.69-0.87,13.38-1.74,20.02-2.66c19.38-2.56,38.57-5.13,57.62-7.6c0.37-0.05,0.78-0.09,1.19-0.14
								c14.29-1.88,28.49-3.71,42.6-5.54c0.96-0.14,1.88-0.28,2.84-0.37c13.06-1.69,26.06-3.34,38.89-5.04
								c6.55-0.82,13.06-1.65,19.51-2.47c14.7-1.83,29.23-3.66,43.61-5.5c5.77-0.73,11.5-1.47,17.22-2.15
								c5.86-0.73,11.64-1.42,17.41-2.15c12.09-1.51,24.09-2.98,35.91-4.4c5.73-0.69,11.36-1.37,16.99-2.06
								c4.35-0.5,8.7-1.05,13.01-1.56c12.73-1.51,25.33-3.02,37.79-4.49c4.44-0.5,8.84-1.05,13.24-1.56
								c8.25-0.92,16.44-1.88,24.55-2.79c20.48-2.38,40.45-4.63,59.96-6.73c11.68-1.28,23.18-2.52,34.54-3.71
								c15.12-1.6,29.87-3.11,44.25-4.58c7.24-0.69,14.34-1.42,21.39-2.11c3.53-0.37,7.01-0.69,10.49-1.01
								c13.38-1.28,26.43-2.47,39.12-3.62c13.7-1.24,26.98-2.38,39.81-3.39c5.63-0.46,11.22-0.92,16.67-1.33
								c2.2-0.18,4.44-0.37,6.6-0.5c7.28-0.55,14.38-1.05,21.35-1.51c28.49-1.97,54.42-3.39,77.5-4.17
								c67.89-2.29,115.11,68.76,84.88,129.59c-1.15,2.29-2.38,4.58-3.71,6.87c-0.64,1.05-1.24,2.11-1.92,3.12
								c-0.69,1.1-1.42,2.2-2.15,3.34c-0.73,1.1-1.51,2.2-2.34,3.3c-0.73,1.01-1.47,2.02-2.24,2.98c-1.92,2.52-3.99,4.99-6.18,7.47
								c-1.69,1.92-3.48,3.8-5.36,5.68c-0.92,0.96-1.88,1.88-2.89,2.84c-1.01,1.01-2.06,2.02-3.16,3.02
								c-0.96,0.87-1.97,1.74-2.98,2.61c-4.26,3.71-8.89,7.42-13.92,11.04c45.71,29.68-21.85,83.09-143.01,85.52
								c-12.55,0.28-24.87,3.66-35.59,10.17l-244.56,148.78l-77.14,46.95l88.04,58.86l100.59,67.29c13.1,8.75,30.78,4.86,39.03-8.57
								c44.07-71.92,97.2-116.85,157.8-139.57c17.64-6.6,37.01-6.73,54.74-0.32c15.67,5.68,32.66,13.6,50.34,23.45
								c1.97,1.05,3.94,2.2,5.91,3.34c1.69,0.96,3.44,1.92,5.13,2.98c3.57,2.11,7.24,4.31,10.86,6.6c2.34,1.47,4.67,2.93,7.01,4.44
								c2.38,1.51,4.76,3.07,7.15,4.67c6.96,4.63,13.92,9.53,20.93,14.61c4.67,3.44,9.39,6.92,14.06,10.53
								c2.34,1.79,4.67,3.62,6.96,5.5c4.31,3.34,8.57,6.82,12.78,10.4c1.51,1.24,3.02,2.47,4.49,3.76c2.52,2.15,5.04,4.31,7.56,6.55
								c1.92,1.69,3.85,3.39,5.77,5.13c3.94,3.53,7.79,7.1,11.64,10.72c3.8,3.62,7.6,7.28,11.36,11.04
								c1.42,1.42,2.89,2.89,4.35,4.35c2.38,2.43,4.72,4.9,7.05,7.33c1.7,1.79,3.39,3.57,5.04,5.36c1.79,1.92,3.53,3.85,5.31,5.82
								c1.74,1.92,3.48,3.89,5.18,5.86c1.47,1.65,2.93,3.34,4.4,5.04c0.23,0.27,0.5,0.6,0.73,0.87c1.7,2.02,3.34,3.98,4.99,6
								c3.3,3.99,6.55,8.02,9.62,12.09c1.56,2.02,3.12,4.03,4.63,6.09c3.07,4.08,6,8.15,8.84,12.32c1.47,2.06,2.84,4.12,4.21,6.23
								c2.79,4.17,5.45,8.34,7.97,12.51c1.28,2.11,2.57,4.21,3.76,6.28c4.35,7.47,8.34,14.98,11.96,22.54
								c0.69,1.51,1.42,3.02,2.11,4.58c2.47,5.36,4.72,10.76,6.73,16.17c0.59,1.51,1.15,3.07,1.65,4.58
								c0.18,0.41,0.32,0.87,0.46,1.28c0.5,1.42,0.96,2.84,1.42,4.26c2.7,8.29,4.86,16.54,6.37,24.74c0.28,1.42,0.5,2.89,0.73,4.31
								c0.32,1.83,0.55,3.62,0.78,5.4c0.09,0.73,0.18,1.42,0.27,2.06c0.14,1.19,0.23,2.38,0.37,3.57c0.05,0.82,0.14,1.65,0.18,2.43
								c0.14,1.65,0.23,3.34,0.32,4.99v0.37C3334.63,2800.1,3334.67,2802.11,3334.67,2804.18z"/>
						</g>
						<g>
							<path class="st7" d="M2825.07,3088.75c-109.94,0.01-243.68-33-400.83-99.1c-127.32,56.38-249.96,84.96-364.64,84.96
								c-3.61,0-7.27-0.04-10.88-0.09l-6.67-0.14c-2.87-0.05-5.87-0.15-8.87-0.29c-2.6-0.08-5.54-0.22-8.42-0.37
								c-5.78-0.28-11.52-0.66-17.26-1.08l-7.56-0.6c-0.2-0.01-0.4-0.03-0.6-0.05c-1.83-0.2-3.67-0.35-5.5-0.51l-9.91-1.05
								c-3.57-0.38-7.17-0.81-10.78-1.29c-3.61-0.48-7.07-0.94-10.53-1.45c-13.05-1.88-26.47-4.24-39.86-7.02l-3.77-0.83
								c-2.94-0.58-5.89-1.25-8.79-1.93c-3.39-0.78-6.84-1.58-10.28-2.43c-3.51-0.86-7.03-1.73-10.51-2.7
								c-5.06-1.34-10.35-2.79-15.6-4.29c-2.25-0.65-4.39-1.28-6.58-1.97c-5.1-1.53-10.38-3.21-15.62-4.9
								c-1.6-0.52-3.13-1.04-4.7-1.59l-7.95-2.75c-6.01-2.08-11.95-4.3-17.89-6.56l-2.35-0.92c-3.17-1.22-6.57-2.56-9.92-3.95
								c-3.13-1.25-6.48-2.64-9.82-4.07c-2.71-1.15-5.54-2.37-8.31-3.59c-0.27-0.12-0.55-0.25-0.82-0.39
								c-0.2-0.07-0.46-0.19-0.76-0.33c-3.28-1.41-6.5-2.9-9.73-4.4l-1.32-0.61c-2.89-1.33-5.79-2.68-8.63-4.1
								c-2.94-1.41-6.17-2.99-9.39-4.58c-3.26-1.63-6.48-3.27-9.67-4.9c-29-15.09-57.64-32.47-85.2-51.7c-3-2.09-6.03-4.22-9.01-6.4
								c-2.87-2.03-5.95-4.3-9.02-6.57c-9.27-6.84-18.42-13.88-27.19-20.92c-2.85-2.27-5.76-4.63-8.66-7.03
								c-0.27-0.21-0.54-0.42-0.8-0.63l-2.92-2.44c-1.86-1.54-3.72-3.09-5.58-4.67c-32.03-27.03-64.06-57.93-95.12-91.81
								c-2.81-3.04-5.61-6.13-8.36-9.26c-10.63-11.79-21.66-24.58-32.61-37.85c-4.44-5.36-8.88-10.79-13.28-16.31
								c-18.98-5.75-37.93-11.69-56.4-17.7c-2.64-0.86-5.27-1.72-7.9-2.64c-15.21-4.92-31.35-10.36-47.59-16.04
								c-9.58-3.36-19.11-6.77-28.59-10.18c-9.61-3.48-19.07-6.94-28.5-10.5c-9.36-3.49-18.75-7.09-28.1-10.75
								c-8.73-3.4-17.48-6.85-26.14-10.31l-1.86-0.75c-1.14-0.45-2.27-0.9-3.4-1.38c-4.91-1.99-9.98-4.07-15.01-6.15l-5.78-2.38
								c-3.54-1.47-6.76-2.8-9.93-4.18c-4.43-1.84-9.1-3.84-13.72-5.85l-0.39-0.16c-4.91-2.09-9.82-4.19-14.74-6.42
								c-3.94-1.68-8.24-3.57-12.49-5.51c-3.34-1.43-7.09-3.08-10.78-4.83l-0.51-0.22c-4.82-2.17-9.63-4.34-14.41-6.6
								c-3.81-1.68-7.97-3.59-12.14-5.61c-5.48-2.54-11.17-5.25-16.87-8c-2.27-1.02-4.49-2.13-6.76-3.29
								c-5.55-2.64-11.1-5.32-16.6-8.1c-3.16-1.5-6.61-3.23-10.06-5c-3.61-1.76-7.55-3.77-11.49-5.79
								c-5.3-2.68-10.44-5.29-15.49-7.96c-6.88-3.55-13.88-7.28-20.87-11l-7.11-3.82c-4.69-2.52-9.24-5.01-13.78-7.57
								c-1.6-0.83-3.19-1.7-4.75-2.62c-2-1.07-3.96-2.19-5.92-3.31c-5-2.76-10.17-5.72-15.35-8.68l-2.92-1.67
								c-0.55-0.29-1.32-0.73-2.14-1.24c-0.67-0.37-1.34-0.75-1.98-1.15c-2.77-1.59-5.54-3.19-8.27-4.83
								c-1.52-0.85-3.41-1.97-5.31-3.1l-2.5-1.47c-1.03-0.58-2.36-1.38-3.72-2.19l-1.15-0.69c-3.77-2.23-7.6-4.56-11.43-6.89
								l-0.68-0.42c-2.09-1.25-4.29-2.57-6.44-3.95l-2.81-1.74c-4.1-2.49-8.2-5.04-12.26-7.64c-0.21-0.13-0.41-0.26-0.6-0.4
								l-2.5-1.55c-2.07-1.28-4.13-2.56-6.17-3.87c-5.63-3.57-11.29-7.19-16.89-10.85c-0.61-0.4-1.05-0.7-1.5-0.98
								c-0.18-0.11-0.36-0.22-0.54-0.34c-2.06-1.34-4.07-2.68-6.12-4.06c-4.96-3.26-10.05-6.68-15.15-10.12
								c-0.02-0.01-0.44-0.29-0.46-0.31c-2.46-1.65-4.99-3.35-7.52-5.14c-1.28-0.83-2.56-1.7-3.84-2.62l-0.98-0.67
								c-4.07-2.81-8.14-5.63-12.22-8.48c-6.92-4.88-13.81-9.78-20.65-14.73c-0.2-0.14-0.4-0.29-0.59-0.44
								c-0.07-0.05-0.14-0.1-0.21-0.15c-6.51-4.76-12.98-9.52-19.4-14.33c-0.17-0.12-0.33-0.25-0.49-0.38l-1.67-1.27
								c-19.77-14.88-39.22-30.28-57.82-45.76l-3.37-2.77c-6.1-5.09-12.18-10.28-18.21-15.48c-2.06-1.74-4.17-3.57-6.33-5.45
								c-3.47-3-6.96-6.07-10.46-9.24l-0.49-0.43c-0.71-0.63-1.44-1.27-2.14-1.93c-0.69-0.6-1.37-1.21-2.05-1.82l-2.68-2.39
								c-4.33-3.93-8.61-7.82-12.9-11.8c-0.4-0.35-1.12-1.02-1.77-1.67l-0.47-0.44c-4.53-4.17-9.03-8.37-13.5-12.62
								c-57.71-9.04-123.91-28.51-141.81-93.46c-3.99-14.63,0.95-30.04,11.76-39.8c-94.74-102.31-62.57-168.89-49.77-187.59
								c29.58-43.2,94.01-54.8,153.19-27.6c58.12,28.34,124.43,60.73,197.13,96.22l200.02,97.64c0.39,0.16,0.77,0.33,1.12,0.5
								c3.62,1.8,7.25,3.57,10.89,5.36l7.43,3.65c44.49,21.68,90.3,44.06,136.99,66.87l20.44,9.99l72.61-10.23
								c10.54-1.45,20.86-2.91,31.19-4.38l28.63-4.04c8.74-1.26,17.58-2.5,26.41-3.75l77.08-10.91c23.49-3.34,47.05-6.69,70.61-9.99
								c18.13-2.61,36.36-5.18,54.57-7.75l6.75-0.96c44.42-6.31,88.82-12.6,133.08-18.82l37.45-5.31c9.51-1.35,18.99-2.69,28.47-4
								l227.19-31.84c26.7-3.71,53.23-7.37,79.56-11l73.08-9.99c32.65-4.49,64.97-8.85,96.83-13.11c8.82-1.21,17.67-2.38,26.47-3.55
								l13.37-1.8c6.81-0.88,13.44-1.74,20.03-2.66l15.89-2.1c14.05-1.87,28.01-3.72,41.89-5.52l1.62-0.19
								c10.32-1.36,21.05-2.75,31.73-4.14l10.43-1.35c0.93-0.14,2.01-0.29,3.14-0.41l6.1-0.8c10.91-1.42,21.75-2.83,32.52-4.21
								l19.51-2.48c14.68-1.88,29.27-3.72,43.67-5.51l1.93-0.24c5.14-0.65,10.25-1.3,15.37-1.92c5.94-0.75,11.7-1.47,17.43-2.15
								c12.02-1.5,24.05-2.97,35.89-4.39l30.07-3.62c9.23-1.13,18.46-2.21,27.59-3.29l23.46-2.76c6.09-0.71,12.18-1.4,18.22-2.08
								l6.37-0.72c20.47-2.38,40.49-4.63,60.05-6.74c11.68-1.28,23.21-2.52,34.6-3.72c15.12-1.6,29.89-3.12,44.3-4.58
								c4.17-0.4,8.19-0.8,12.17-1.2l9.31-0.92c3.47-0.36,7.02-0.69,10.57-1.02c13.38-1.28,26.48-2.52,39.23-3.62
								c13.71-1.24,27.06-2.39,39.96-3.4l1.54-0.13c5.13-0.42,10.22-0.83,15.2-1.21c2.15-0.18,4.53-0.37,6.81-0.52
								c7.12-0.54,14.28-1.05,21.3-1.51c29.71-2.06,55.27-3.43,78.09-4.2c38.83-1.37,74.68,17.51,95.8,50.35
								c20.72,32.2,23,71.72,6.1,105.7c-1.32,2.65-2.74,5.28-4.26,7.91l-0.68,1.14c-0.58,0.98-1.17,1.94-1.8,2.88l-2,3.11
								c-1.15,1.71-2.11,3.08-3.13,4.44c-0.81,1.12-1.7,2.32-2.63,3.48c-1.84,2.41-4.14,5.19-6.74,8.12
								c-2.1,2.39-4.04,4.45-6.05,6.42c-1.04,1.08-2.13,2.13-3.27,3.21c-0.87,0.87-2.12,2.08-3.42,3.27
								c-0.71,0.64-1.4,1.25-2.09,1.85c7.53,12.64,5.64,24.84,3.95,30.77c-11.47,40.2-82.93,69.54-173.78,71.36
								c-9.53,0.21-18.7,2.81-26.46,7.51l-297.15,180.79l164.77,110.2c2.89,1.93,5.75,1.68,7.21,1.37c1.46-0.32,4.18-1.3,6.02-4.29
								c44.61-72.81,100.8-122.32,166.98-147.14c21.72-8.12,45.64-8.26,67.4-0.4c16.58,6.01,34.42,14.31,53.03,24.68
								c1.89,1.01,4.06,2.26,6.22,3.52l0.58,0.33c1.67,0.94,3.35,1.9,5,2.92c3.35,1.97,7.18,4.27,10.97,6.66l0.72,0.45
								c2.14,1.35,4.28,2.7,6.43,4.08c2.41,1.53,4.93,3.18,7.45,4.87c7.77,5.16,14.86,10.11,21.57,15.06
								c4.79,3.52,9.62,7.09,14.41,10.81c2.4,1.84,4.9,3.79,7.34,5.8c3.94,3.05,8.45,6.72,13.03,10.6c1.55,1.27,3.16,2.59,4.72,3.95
								c2.44,2.08,5.05,4.32,7.67,6.66c1.9,1.67,3.88,3.42,5.86,5.21c3.99,3.58,7.95,7.25,11.91,10.98
								c3.98,3.79,7.89,7.55,11.75,11.42l4.36,4.36c1.89,1.92,3.61,3.73,5.34,5.53l1.98,2.07c1.82,1.91,3.57,3.76,5.28,5.61
								c1.81,1.95,3.61,3.93,5.44,5.97c1.83,2.01,3.66,4.09,5.45,6.17c1.35,1.52,2.87,3.28,4.39,5.03l1.01,1.2
								c1.63,1.92,3.33,3.96,5.02,6.03c4.13,4.99,7.25,8.92,10.09,12.69c1.52,1.97,3.17,4.11,4.78,6.29
								c3.14,4.17,6.2,8.43,9.19,12.82c1.4,1.97,2.91,4.22,4.41,6.52c2.82,4.2,5.65,8.65,8.32,13.06c1.44,2.36,2.73,4.5,3.95,6.59
								c4.56,7.83,8.81,15.85,12.62,23.8l0.9,1.94c0.49,1.05,0.98,2.1,1.46,3.18c2.49,5.38,4.93,11.25,7.13,17.13
								c0.54,1.38,1.13,3.02,1.68,4.66c0.21,0.56,0.42,1.13,0.6,1.68c0.49,1.39,1.01,2.97,1.52,4.56c2.99,9.2,5.34,18.31,6.95,27.04
								c0.25,1.29,0.49,2.76,0.72,4.2l0.08,0.51c0.33,1.85,0.6,3.9,0.86,5.94l0.24,1.83c0.02,0.18,0.05,0.35,0.07,0.52l0.37,3.57
								c0.04,0.37,0.07,0.74,0.09,1.11l0.18,2.38c0.11,1.24,0.21,3.01,0.31,4.75c0.02,0.34,0.04,0.93,0.04,1.27
								c0.09,1.88,0.14,4.17,0.14,6.5c0,12.92-1.54,25.52-4.59,37.47c-7.67,30-28.72,54.51-57.75,67.26
								c-47.5,20.77-98.23,20.07-151.04-2.03C3079.35,3028.05,2974.08,3088.74,2825.07,3088.75z M2424.04,2951.35
								c2.44,0,4.88,0.48,7.17,1.46c183.42,77.99,334.24,110.42,448.2,96.43c112.02-13.76,188.75-70.69,234.58-174.02
								c2.03-4.58,5.85-8.13,10.56-9.82c4.72-1.68,9.92-1.38,14.4,0.86c49.45,24.8,94.26,27.76,136.98,9.08
								c18.62-8.18,32.1-23.77,36.96-42.76c2.3-8.98,3.46-18.54,3.46-28.4c0-1.78-0.04-3.53-0.12-5.31
								c-0.01-0.22-0.01-0.44-0.01-0.66c-0.08-1.45-0.16-2.74-0.26-4l-0.08-1.14c-0.04-0.44-0.07-0.89-0.1-1.34l-0.29-2.78
								c-0.09-0.68-0.19-1.39-0.28-2.15c-0.18-1.36-0.36-2.86-0.64-4.39l-0.13-0.79c-0.17-1.07-0.35-2.17-0.55-3.23
								c-1.34-7.29-3.29-14.81-5.8-22.52c-0.42-1.3-0.83-2.56-1.27-3.82c-0.04-0.12-0.14-0.4-0.2-0.58
								c-0.14-0.34-0.26-0.68-0.38-1.04c-0.41-1.22-0.84-2.47-1.32-3.68c-1.98-5.3-4.07-10.31-6.31-15.17
								c-0.5-1.13-0.87-1.93-1.25-2.73l-0.9-1.94c-3.23-6.74-7.02-13.88-11.11-20.91c-1.1-1.9-2.25-3.79-3.41-5.69
								c-2.57-4.24-5.09-8.21-7.71-12.11c-1.36-2.07-2.6-3.94-3.92-5.81c-2.87-4.19-5.6-8-8.54-11.91
								c-1.57-2.13-3.03-4.03-4.49-5.92c-2.63-3.49-5.44-7.02-9.24-11.63c-1.64-2-3.24-3.91-4.88-5.86l13.65-12.24l-14,11.82
								l-0.5-0.6c-1.14-1.3-2.55-2.94-3.96-4.53c-1.77-2.05-3.41-3.9-5.06-5.72c-1.74-1.93-3.43-3.79-5.16-5.65
								c-1.63-1.76-3.26-3.49-4.9-5.2l-1.97-2.06c-1.62-1.69-3.24-3.39-4.89-5.07l-4.22-4.22c-3.65-3.64-7.34-7.2-11.03-10.71
								c-3.67-3.46-7.41-6.92-11.24-10.35c-1.92-1.74-3.79-3.38-5.65-5.02c-2.5-2.23-4.93-4.3-7.35-6.37
								c-1.42-1.25-2.71-2.29-3.99-3.35c-0.08-0.07-0.36-0.29-0.44-0.36c-4.18-3.55-8.28-6.88-12.17-9.9
								c-2.5-2.04-4.67-3.75-6.85-5.41c-4.65-3.6-9.25-6.99-13.8-10.34c-6.24-4.6-12.85-9.21-20.21-14.11
								c-2.33-1.57-4.58-3.04-6.83-4.47c-2.14-1.38-4.17-2.66-6.2-3.93l-0.75-0.47c-3.48-2.2-6.98-4.3-10.39-6.3
								c-1.59-0.98-2.82-1.67-4.03-2.35l-0.83-0.47c-1.97-1.15-3.75-2.18-5.52-3.13c-17.18-9.57-33.22-17.05-47.95-22.38
								c-13.55-4.91-28.51-4.82-42.07,0.26c-59.17,22.18-107.78,65.35-148.6,131.98c-6.64,10.81-17.08,18.23-29.42,20.93
								c-12.33,2.7-24.91,0.32-35.41-6.7l-188.64-126.15c-5.2-3.48-8.27-9.37-8.13-15.62c0.14-6.25,3.45-12.01,8.79-15.26
								l321.7-195.74c13.28-8.05,28.73-12.49,44.72-12.84c84.75-1.69,134.99-29.62,139.31-44.77c0.68-2.38-3.39-5.44-5.88-7.06
								c-5.07-3.29-8.19-8.88-8.33-14.93c-0.15-6.05,2.7-11.78,7.61-15.31c4.32-3.11,8.55-6.46,12.59-9.98
								c1-0.86,1.88-1.63,2.73-2.39c0.81-0.74,1.67-1.56,2.49-2.38c1.11-1.07,1.87-1.79,2.59-2.54c0.15-0.15,0.3-0.3,0.45-0.45
								c1.58-1.54,3.01-3.1,4.41-4.68c2.06-2.32,3.8-4.42,5.39-6.49c0.84-1.05,1.36-1.78,1.89-2.5c0.88-1.18,1.47-2.02,2.03-2.85
								l1.84-2.87c0.11-0.18,0.23-0.36,0.35-0.53c0.29-0.43,0.55-0.89,0.82-1.34l0.64-1.07c0.92-1.59,1.97-3.54,2.94-5.49
								c11.08-22.29,9.55-48.3-4.12-69.55c-14.08-21.88-38.04-34.48-63.74-33.55c-22.07,0.75-47.93,2.14-76.86,4.14
								c-6.96,0.46-14,0.96-21.22,1.5c-2.26,0.14-4.37,0.31-6.44,0.49c-5.07,0.38-10.08,0.79-15.13,1.2l-1.6,0.13
								c-12.82,1.01-26.03,2.15-39.65,3.37c-12.7,1.1-25.7,2.33-39.02,3.61c-3.47,0.32-6.88,0.64-10.34,1l-9.34,0.92
								c-4.04,0.41-8.11,0.81-12.22,1.2c-14.24,1.45-28.96,2.96-44.05,4.56c-11.35,1.19-22.81,2.42-34.47,3.7
								c-19.5,2.11-39.42,4.34-59.84,6.72l-6.45,0.73c-6,0.68-12.04,1.36-18.1,2.07l-23.4,2.76c-9.08,1.07-18.26,2.15-27.53,3.28
								l-30.03,3.62c-11.79,1.42-23.76,2.88-35.84,4.38c-5.74,0.68-11.42,1.4-17.11,2.11c-5.41,0.65-10.44,1.29-15.5,1.93
								l-1.98,0.25c-14.41,1.79-28.95,3.62-43.58,5.49l-19.55,2.48c-10.71,1.37-21.53,2.78-32.41,4.19l-6.41,0.83
								c-0.23,0.03-0.46,0.06-0.7,0.08c-0.6,0.05-1.16,0.15-1.76,0.23l-10.83,1.41c-10.66,1.38-21.37,2.77-32.13,4.18l-1.16,0.14
								c-13.92,1.8-27.84,3.65-41.85,5.51l-15.8,2.09c-6.58,0.91-13.32,1.79-20.06,2.66l-13.43,1.81
								c-8.76,1.16-17.56,2.33-26.39,3.54c-31.87,4.26-64.14,8.61-96.78,13.1l-73.03,9.98c-26.31,3.63-52.83,7.29-79.52,11
								l-227.16,31.83c-9.49,1.31-18.93,2.65-28.4,3.99l-37.47,5.31c-44.25,6.23-88.64,12.5-133.06,18.82l-6.77,0.96
								c-18.17,2.56-36.38,5.14-54.54,7.74c-23.59,3.31-47.13,6.65-70.61,9.99l-77.12,10.91c-8.78,1.23-17.57,2.47-26.35,3.74
								l-28.68,4.04c-10.33,1.46-20.72,2.93-31.1,4.36l-78.32,11.03c-3.59,0.5-7.28-0.09-10.54-1.68l-25.48-12.45
								c-46.68-22.8-92.48-45.17-137.03-66.88l-7.42-3.64c-3.4-1.67-6.8-3.33-10.19-5.01c-0.33-0.13-0.65-0.27-0.95-0.42
								l-200.86-98.05c-72.7-35.49-139.01-67.87-196.74-96.03c-42.55-19.55-87.82-13.23-107.28,15.19
								c-19.45,28.41-13.27,84.92,62.43,158.34c4.38,4.25,6.35,10.4,5.27,16.4c-1.08,6-5.08,11.07-10.66,13.53l-12.41,5.45
								c-1.21,0.54-1.88,1.95-1.51,3.28c10.17,36.88,45.34,57.17,117.59,67.76c3.77,0.56,7.28,2.27,10.03,4.91
								c5.68,5.46,11.41,10.83,17.18,16.15c0.15,0.14,0.3,0.27,0.44,0.42l1.64,1.54c4.45,4.12,8.63,7.92,12.87,11.76l4.38,3.9
								c0.21,0.19,0.42,0.38,0.63,0.57c0.47,0.44,0.96,0.87,1.44,1.29l0.77,0.68c3.42,3.1,6.7,5.98,9.98,8.81
								c2.08,1.81,4.1,3.56,6.15,5.3c5.98,5.15,11.9,10.21,17.88,15.19l3.36,2.76c18.12,15.08,37.09,30.11,56.39,44.63l0.49,0.37
								c0.61,0.45,1.2,0.9,1.78,1.36c6.17,4.61,12.38,9.19,18.64,13.76c0.41,0.29,0.8,0.57,1.17,0.86
								c6.63,4.79,13.29,9.54,19.96,14.24c3.97,2.78,7.98,5.55,11.98,8.32l1.22,0.83c1.12,0.8,1.99,1.4,2.88,1.96
								c0.25,0.16,0.5,0.33,0.74,0.5c2.39,1.69,4.78,3.3,7.17,4.91c0.01,0,0.42,0.28,0.43,0.29c4.99,3.35,9.97,6.71,15,10.01
								c1.98,1.34,3.75,2.52,5.56,3.7c0.82,0.5,1.64,1.04,2.45,1.59c5.33,3.48,10.85,7.01,16.42,10.54
								c1.96,1.26,3.87,2.44,5.78,3.62l3.39,2.11c0.32,0.2,0.62,0.41,0.93,0.62c3.56,2.28,7.17,4.51,10.78,6.7l3.1,1.91
								c2.2,1.39,4.12,2.54,6.04,3.7l0.81,0.49c3.69,2.24,7.37,4.49,11.1,6.69l1.35,0.81c1.02,0.62,2.02,1.22,3.02,1.79l2.93,1.72
								c1.7,1.01,3.41,2.02,5.12,2.99c3.03,1.81,5.71,3.35,8.4,4.9c0.35,0.2,0.68,0.41,1.02,0.63l0.22,0.1
								c0.46,0.25,0.92,0.52,1.36,0.8c0.21,0.14,0.42,0.25,0.64,0.37l3.38,1.93c5.02,2.87,10.03,5.74,15.1,8.54
								c2.01,1.14,3.78,2.16,5.6,3.13c0.24,0.13,0.48,0.26,0.71,0.4c1.16,0.69,2.36,1.34,3.56,1.96c0.2,0.1,0.4,0.21,0.59,0.32
								c4.43,2.5,8.86,4.92,13.34,7.33l6.62,3.56c7.27,3.87,14.13,7.52,21.02,11.08c5,2.64,9.94,5.15,14.83,7.62
								c4.14,2.11,7.87,4.02,11.6,5.85c3.48,1.78,6.63,3.35,9.82,4.89c5.66,2.85,11.03,5.44,16.39,7.99
								c0.16,0.07,0.31,0.15,0.46,0.22c1.87,0.96,3.69,1.88,5.56,2.71c0.17,0.07,0.33,0.15,0.5,0.23
								c5.59,2.71,11.19,5.37,16.83,7.98c4.06,1.96,7.87,3.71,11.72,5.42c4.97,2.34,9.58,4.41,14.18,6.49l0.83,0.38
								c3.6,1.7,6.91,3.16,10.22,4.58c4.39,2,8.43,3.77,12.47,5.5c5.01,2.27,9.66,4.25,14.32,6.24l0.49,0.21
								c4.56,1.98,9.05,3.91,13.59,5.8c3.26,1.42,6.27,2.67,9.28,3.91l6.03,2.48c4.98,2.05,9.98,4.11,15,6.14l5,2.02
								c8.48,3.38,17.13,6.8,25.79,10.17c9.18,3.59,18.39,7.13,27.64,10.58c9.35,3.53,18.66,6.93,28.07,10.34
								c9.34,3.35,18.78,6.73,28.27,10.06c15.96,5.59,31.82,10.93,47.12,15.89c2.77,0.96,5.18,1.74,7.59,2.53
								c19.99,6.5,40.56,12.93,61.12,19.11c3.59,1.08,6.77,3.25,9.1,6.2c5.41,6.85,10.85,13.55,16.35,20.18
								c10.65,12.9,21.32,25.28,31.76,36.86c2.71,3.09,5.31,5.95,7.96,8.82c30.05,32.77,60.94,62.58,91.85,88.66
								c1.81,1.54,3.56,2.99,5.3,4.45l2.62,2.18c0.24,0.18,0.47,0.36,0.7,0.55c2.84,2.35,5.68,4.66,8.52,6.92
								c8.44,6.77,17.2,13.52,26.08,20.07c2.88,2.13,5.76,4.25,8.64,6.29c2.99,2.18,5.82,4.17,8.6,6.11
								c26.26,18.32,53.54,34.88,81.06,49.2c2.97,1.53,6.06,3.1,9.11,4.62c3.03,1.49,6.13,3.02,9.22,4.5
								c2.78,1.39,5.36,2.57,7.91,3.75l1.37,0.63c3,1.4,5.99,2.78,9.02,4.08c0.33,0.14,0.66,0.29,0.99,0.46
								c0.21,0.08,0.52,0.21,0.85,0.37c2.55,1.12,5.14,2.24,7.69,3.33c3.13,1.34,6.2,2.61,9.28,3.84c3.27,1.35,6.37,2.58,9.44,3.76
								l2.29,0.9c5.36,2.04,10.96,4.13,16.6,6.08l7.9,2.73c1.36,0.47,2.71,0.93,4.05,1.37c4.96,1.6,10.03,3.21,15.09,4.73
								c2.12,0.66,4.01,1.22,5.95,1.78c4.96,1.42,10.02,2.81,15.09,4.15c3.33,0.93,6.49,1.7,9.65,2.48c3.27,0.81,6.51,1.56,9.8,2.31
								c2.62,0.62,5.19,1.21,7.76,1.71c0.17,0.03,0.33,0.07,0.49,0.11l3.69,0.81c12.43,2.57,25.11,4.8,37.46,6.58
								c3.35,0.49,6.67,0.93,9.97,1.38c3.42,0.45,6.68,0.84,10,1.19l9.13,0.98c2,0.17,3.99,0.34,6,0.55l7.17,0.57
								c5.47,0.4,10.91,0.76,16.39,1.03c2.71,0.13,5.45,0.26,8.15,0.36c2.88,0.14,5.46,0.22,8.06,0.26l6.59,0.14
								c3.32,0.05,6.81,0.09,10.25,0.09c111.65,0,231.73-28.6,356.91-85C2418.9,2951.89,2421.47,2951.35,2424.04,2951.35z
								 M3306.92,2752.13c0,0.01,0.01,0.03,0.02,0.05C3306.93,2752.16,3306.92,2752.15,3306.92,2752.13z M3306.89,2752.08
								c0,0.01,0.01,0.02,0.02,0.04C3306.9,2752.1,3306.9,2752.09,3306.89,2752.08z M3306.87,2752.03c0.01,0.01,0.01,0.02,0.01,0.03
								C3306.88,2752.05,3306.87,2752.04,3306.87,2752.03z M3306.84,2751.97c0,0.01,0.01,0.02,0.01,0.03
								C3306.85,2752,3306.85,2751.99,3306.84,2751.97z M3306.82,2751.92c0,0.01,0,0.01,0.01,0.02
								C3306.83,2751.94,3306.83,2751.93,3306.82,2751.92z M812.34,2438.79c0.01,0,0.01,0.01,0.02,0.02
								C812.35,2438.81,812.35,2438.8,812.34,2438.79z M811.88,2438.49c0.04,0.02,0.11,0.07,0.2,0.14
								C812.01,2438.58,811.95,2438.53,811.88,2438.49z"/>
						</g>
						<g>
							<path class="st7" d="M2287.91,2562.9c136.47-8.62,264.18-64.05,383.85-126.95c21.97-10.9,38.55,20.97,16.71,32.62
								c-93.81,46.11-192.14,85.6-295.55,103.96c-34.6,5.72-69.87,8.83-105,6.92c-4.57-0.25-8.07-4.16-7.82-8.72
								C2280.33,2566.46,2283.75,2563.13,2287.91,2562.9L2287.91,2562.9z"/>
						</g>
						<g>
							<path class="st7" d="M2602.99,2517.52c-5.42,0-10.79-2.4-14.41-6.99c-98.22-124.67-121.61-267.98-71.5-438.12
								c2.86-9.71,13.03-15.26,22.75-12.4c9.71,2.86,15.26,13.05,12.4,22.75c-46.51,157.92-25.2,290.42,65.13,405.09
								c6.26,7.95,4.89,19.47-3.06,25.73C2610.95,2516.23,2606.95,2517.52,2602.99,2517.52z"/>
						</g>
						<g>
							<path class="st7" d="M2414.28,2954.19l153.75-77.05c1.59-0.84,3.16,1.54,1.66,2.63c0,0-135.88,105.42-135.88,105.42
								C2412.04,3000.6,2390.93,2967.24,2414.28,2954.19L2414.28,2954.19z"/>
						</g>
						<g>
							<path class="st7" d="M2794.46,3088.23c-6.82,0-13.36-3.82-16.52-10.38c-4.39-9.12-0.56-20.06,8.56-24.46
								c106.29-51.2,123.95-151.65,125.02-206.97c1.96-101.51-44.92-189.84-89.49-213.47c-8.94-4.74-12.34-15.83-7.6-24.77
								c4.74-8.94,15.83-12.34,24.77-7.6c64.17,34.02,111.02,140.01,108.96,246.55c-1.23,63.74-21.81,179.57-145.77,239.28
								C2799.83,3087.65,2797.12,3088.23,2794.46,3088.23z"/>
						</g>
						<g>
							<path class="st7" d="M3098.13,2225.36l-85.68-35.75c-8.8-3.72-4.84-17.06,4.51-15.44l91.45,16.02
								C3134.84,2196.19,3123.67,2234.54,3098.13,2225.36L3098.13,2225.36z"/>
						</g>
						<g>
							<path class="st7" d="M3113.97,2875.31c24.21-45.45,35.76-95.22,32.54-146.9c-0.54-10.85,15.41-12.71,17.34-2
								c10.25,54.05,3.74,112.29-16.32,163.59C3137.79,2913.84,3103.07,2898.72,3113.97,2875.31L3113.97,2875.31z"/>
						</g>
						<g>
							<path class="st7" d="M585.55,2203.44c-9.95,0-20.43-1.22-31.52-3.65c-9.89-2.17-16.14-11.94-13.97-21.82
								c2.17-9.89,11.97-16.15,21.82-13.97c30.79,6.75,51.77,1.82,70.17-16.53c7.16-7.14,18.76-7.13,25.91,0.04
								c7.14,7.17,7.12,18.77-0.04,25.91C637.79,2193.5,613.92,2203.44,585.55,2203.44z"/>
						</g>
						<g>
							<path class="st7" d="M666.37,2274.96l145.05,10.26c9.87,0.78,9.88,15.36,0,16.12c0,0-145.05,10.26-145.05,10.26
								c-10.12,0.72-18.9-6.91-19.62-17.03C645.88,2283.54,655.35,2274.1,666.37,2274.96L666.37,2274.96z"/>
						</g>
						<g>
							<path class="st7" d="M917.46,2505.94c-8.21,0-15.69-5.56-17.76-13.89c-38.02-152.48,42.17-243.43,127.56-323.52
								c7.38-6.92,18.97-6.55,25.9,0.83s6.55,18.97-0.83,25.9c-80.66,75.65-150.31,154.6-117.07,287.92
								c2.45,9.82-3.53,19.77-13.34,22.21C920.42,2505.76,918.93,2505.94,917.46,2505.94z"/>
						</g>
						<g>
							<path class="st7" d="M1250.06,2459.19c47.1,101.89,108.92,211.62,220.22,251.24c9.5,3.5,14.37,14.04,10.87,23.54
								c-3.6,9.9-15.01,14.73-24.63,10.43c-28.7-12.62-55.56-29.53-78.8-50.14c-46.11-40.63-79.14-93.17-104.45-148.12
								c-12.49-27.19-23.47-54.85-33.22-82.86C1237.94,2456.99,1247.04,2453.04,1250.06,2459.19L1250.06,2459.19z"/>
						</g>
						<g class="st17">
							<path class="st7" d="M3338.26,2840.48c-6.32,24.74-24,44.75-47.36,55.01c-47.13,20.61-97.89,17.91-152.53-9.48
								c-96.47,217.49-332.23,246.26-706.7,87.03c-181.07,81.58-346.57,104.53-497.55,73.06l90.79-314.05l413.08-74.16
								c8.8,123.72,70.86,191.29,187.35,201.41c338.51,124.46,429.25-129.22,638.72-221.57
								C3319.02,2702.24,3354.7,2775.89,3338.26,2840.48z"/>
						</g>
						<g class="st17">
							<path d="M3131.56,2182.58c-1.69,1.92-3.44,3.8-5.36,5.68C3128.08,2186.38,3129.87,2184.51,3131.56,2182.58z"/>
						</g>
						<g class="st17">
							<path class="st7" d="M3146.41,2162.38c-0.64,1.05-1.24,2.11-1.92,3.12c-0.69,1.1-1.42,2.2-2.15,3.34
								c-0.73,1.1-1.51,2.2-2.34,3.3c-0.73,1.01-1.47,2.02-2.24,2.98c-1.92,2.52-3.99,4.99-6.18,7.47c-1.69,1.92-3.48,3.8-5.36,5.68
								c-0.92,0.96-1.88,1.88-2.89,2.84c-1.01,1.01-2.06,2.02-3.16,3.02c-0.96,0.87-1.97,1.74-2.98,2.61
								c-4.26,3.71-8.89,7.42-13.92,11.04c45.71,29.68-21.85,83.09-143.01,85.52c-12.55,0.28-24.87,3.66-35.59,10.17l-244.56,148.78
								l-77.14,46.95l88.04,58.86l-378.04,117.54l-308,95.78l-108.29,33.67l-416.66-57.12l-38.75-5.31
								c-14.02-11.45-27.16-22.95-39.39-34.45c-2.52-0.82-5.04-1.65-7.56-2.52c-143.51-47.73-279.05-104.76-403.65-174.57
								c-5.13-2.84-10.21-5.73-15.3-8.66c-0.69-0.37-1.33-0.73-1.97-1.15c-0.6-0.32-1.19-0.64-1.74-1.01
								c-2.79-1.6-5.59-3.21-8.34-4.86c-2.66-1.51-5.31-3.11-7.97-4.67c-1.56-0.87-3.11-1.83-4.72-2.79
								c-4.03-2.38-8.02-4.81-12-7.24c-2.06-1.24-4.12-2.47-6.14-3.76c-1.05-0.64-2.06-1.28-3.11-1.92
								c-2.21-1.34-4.39-2.74-6.59-4.11c-69.09-42.75-134.41-90.02-195.33-142.38c-1.59-1.36-3.21-2.71-4.8-4.08
								c-2.11-1.79-4.17-3.57-6.28-5.41c-3.39-2.93-6.78-5.91-10.17-8.98c-2.24-1.97-4.49-3.99-6.73-6
								c-2.93-2.61-5.82-5.27-8.7-8.02c-2.02-1.74-3.99-3.57-5.95-5.41c-0.32-0.32-0.69-0.64-1.01-0.96l110.81-4.21l122.3,26.11
								c2.47,0.5,4.9,0.92,7.33,1.24c61.66,8.34,115.25-45.35,105.26-108.15l-4.58-28.63l-3.71-23.22l0.18,0.05l205.81,84.88
								l37.47,15.44c1.56-7.15,3.25-14.29,5.04-21.44l6.32-0.87l4.58-0.69l10.03-1.37l21.03-2.98l329.99,184.87
								c81.12,173.24,498.42,37.47,879.44-96.61C2793.24,2238.28,3046.87,2143.37,3146.41,2162.38z"/>
						</g>
					</g>
					<g>
						<g>
							<path class="st3" d="M2233.07,2846.87c-3.76,15.85-8.66,31.7-14.57,47.55c-4.35,11.59-9.21,23.22-14.57,34.81
								c-2.15,4.63-4.72,8.93-7.79,12.92c-9.94,13.33-24.42,22.81-41,26.43c-164.35,36-328.84,63.85-493.79,69.85
								c-16.54,0.6-32.84-3.94-46.49-13.24c-86.44-58.86-162.84-129.17-226.15-214.51c-8.93-12.09-14.25-26.11-15.8-40.58
								c-1.6-14.02,0.37-28.45,5.91-41.91l30.32-73.47c7.33-17.68,22.54-30.83,41.09-35.59c19.06-4.86,38.07-9.48,57.07-13.83
								c172.69-39.39,344.19-56.07,514.13-42.78c19.38,1.51,37.88,9.21,52.17,22.35c51.62,47.59,102.56,117.4,152.76,211.44
								C2234.67,2811.78,2237.15,2829.78,2233.07,2846.87z"/>
						</g>
						<g>
							<path class="st7" d="M1658.37,3056.79c-19.39,0-37.92-5.66-53.79-16.46c-91.52-62.29-169.08-135.88-230.55-218.72
								c-21.22-28.61-25.86-67.08-12.11-100.41l0,0l30.32-73.47c9.44-22.87,29.42-40.21,53.45-46.37
								c205.8-52.73,394.59-71.43,577.22-57.13c23.73,1.86,46.15,11.5,63.14,27.16c53.61,49.41,106.28,122.17,156.53,216.25
								c10.44,19.56,13.4,42.09,8.33,63.46c-6.51,27.46-16.71,56.32-30.32,85.79c-11.63,25.16-34.62,43.69-61.51,49.58
								c-194.85,42.68-352.79,65-497.05,70.25C1660.8,3056.77,1659.58,3056.79,1658.37,3056.79z M1395.79,2735.18L1395.79,2735.18
								c-8.88,21.5-5.94,46.25,7.67,64.59c59.84,80.66,132.37,149.44,221.73,210.26c10.36,7.06,22.53,10.55,35.5,10.07
								c142.01-5.16,297.89-27.22,490.54-69.43c15.76-3.45,29.24-14.35,36.09-29.16c12.59-27.25,21.98-53.78,27.93-78.87
								c3-12.67,1.23-26.07-5-37.74c-48.31-90.45-98.45-159.95-149.04-206.57c-10.98-10.11-25.6-16.35-41.17-17.57
								c-178.52-13.97-363.43,4.38-565.26,56.1c-12.9,3.31-23.61,12.6-28.67,24.85L1395.79,2735.18z"/>
						</g>
						<g>
							<path class="st7" d="M2119.2,2872.5c-6.68,0-12.98-4.08-15.49-10.7c-17.74-46.81-70.09-96.4-117.77-139.2
								c-14-12.57-32.04-19.27-50.9-18.72c-173.24,4.7-306.84,15.22-397.1,31.27c-112.38,19.99-132.94,44.2-136.56,53.68
								c-4.07,10.64,7.24,24.38,17.44,34.02c6.65,6.28,6.94,16.77,0.66,23.41c-6.28,6.65-16.76,6.95-23.41,0.66
								c-25.52-24.12-34.14-47.65-25.63-69.92c16.36-42.79,95.21-93.54,563.71-106.24c27.16-0.7,53.58,8.92,73.93,27.18
								c50.58,45.41,106.24,98.35,126.62,152.11c3.24,8.55-1.06,18.12-9.62,21.36C2123.14,2872.16,2121.15,2872.5,2119.2,2872.5z"/>
						</g>
						<g>
							<path class="st7" d="M1790.35,3046.06c-5.27,0-10.45-2.51-13.67-7.18l-114.34-166.38h-58.96c-4.83,0-9.42-2.11-12.56-5.77
								l-110.38-128.52c-5.96-6.94-5.17-17.4,1.77-23.35c6.94-5.96,17.39-5.16,23.35,1.77l105.42,122.75h60.07
								c5.45,0,10.56,2.69,13.65,7.18l119.28,173.56c5.18,7.54,3.27,17.85-4.27,23.03
								C1796.85,3045.12,1793.58,3046.06,1790.35,3046.06z"/>
						</g>
						<g>
							
								<ellipse transform="matrix(0.7071 -0.7071 0.7071 0.7071 -1481.2015 2165.9165)" class="st18" cx="1873.89" cy="2870.93" rx="46.26" ry="62.11"/>
						</g>
						<g>
							<path class="st7" d="M1889.48,2942.24c-3.3,0-6.66-0.24-10.06-0.74c-17.98-2.63-35.72-11.91-49.95-26.15
								c-14.23-14.23-23.52-31.97-26.15-49.94c-2.85-19.49,2.6-37.75,14.94-50.1c12.34-12.34,30.58-17.78,50.1-14.94
								c17.98,2.63,35.72,11.92,49.95,26.15c0,0,0,0,0,0c30.67,30.67,35.69,75.56,11.21,100.05
								C1919.32,2936.75,1905.1,2942.24,1889.48,2942.24z M1858.16,2832.66c-6.56,0-12.36,1.96-16.47,6.07
								c-11.38,11.38-6.25,35.74,11.21,53.19c9.09,9.1,20.5,15.22,31.31,16.8c5.32,0.76,15.21,1.08,21.88-5.59
								c11.38-11.38,6.25-35.74-11.21-53.2C1883.74,2838.78,1869.77,2832.66,1858.16,2832.66z"/>
						</g>
						<g>
							<path class="st18" d="M1829.98,2827.01c29.27-111.93,213.64,14.04,92.62,81.83
								C1954.23,2881.73,1873.89,2788.37,1829.98,2827.01z"/>
						</g>
						<g>
							<path class="st7" d="M1922.61,2925.4c-5.25,0-10.39-2.5-13.59-7.08c-4.87-6.98-3.66-16.52,2.8-22.06
								c1.94-1.66,1.46-5.92,1-8.32c-3.35-17.47-24.92-43.83-47.71-51.64c-14.85-5.08-21.88,1.1-24.19,3.14
								c-5.47,4.81-13.43,5.49-19.63,1.66c-6.2-3.82-9.17-11.24-7.33-18.29c9.47-36.2,34.42-56.96,68.48-56.96c0.01,0,0.02,0,0.02,0
								c41.63,0.01,85.24,32.38,95.23,70.68c4.14,15.85,7.83,56.04-46.99,86.75C1928.14,2924.72,1925.36,2925.4,1922.61,2925.4z
								 M1866.34,2802.41c3.13,0.62,6.31,1.47,9.51,2.56c27.83,9.53,55.68,37.64,66.14,65.09c4.26-7.27,6.12-15.66,3.64-25.16
								c-6.26-24.02-36.38-45.9-63.18-45.91c0,0,0,0-0.01,0C1876.4,2798.99,1871.03,2800.13,1866.34,2802.41z"/>
						</g>
						<g class="st17">
							<path class="st7" d="M2213.4,2894.41c-4.35,11.59-9.21,23.22-14.57,34.81c-2.15,4.63-4.72,8.93-7.79,12.92
								c-9.94,13.33-24.42,22.81-41,26.43c-164.35,36-328.84,63.85-493.79,69.85c-16.54,0.6-32.84-3.94-46.49-13.24
								c-86.44-58.86-162.84-129.17-226.15-214.51c-8.93-12.09-14.25-26.11-15.8-40.58c-1.6-14.02,0.37-28.45,5.91-41.91
								l30.32-73.47c7.33-17.68,22.54-30.83,41.09-35.59c19.06-4.86,38.07-9.48,57.07-13.83v0c-7.1,27.81,14.74,54.56,43.41,53.16
								l347.23-16.95c69.96-3.41,137.36,26.74,181.45,81.17L2213.4,2894.41z"/>
						</g>
						<g>
							<path class="st3" d="M2177.79,2777.54c353.77-90.22,597.42-200.49,559.03-362.11c-170.74,113.81-353.5,212.29-574.97,261.42
								c-42,9.32-56.7,62.75-24.23,90.96c0.33,0.28,0.66,0.57,0.99,0.85C2149.4,2777.81,2164.09,2781.03,2177.79,2777.54z"/>
						</g>
						<g class="st17">
							<path class="st7" d="M2282.59,2705.42c-13.47,4.32-28.32,1.99-39.65-6.49c-0.35-0.26-0.7-0.53-1.04-0.79
								c-12.34-9.47-18.69-22.61-19.85-36.09c-19.76,5.33-39.82,10.28-60.21,14.81c-42,9.31-56.7,62.75-24.23,90.96
								c0.33,0.28,0.66,0.57,0.99,0.85c10.79,9.15,25.47,12.37,39.18,8.87c284.46-72.54,497.68-158.06,550.36-272.8
								C2633.21,2578.07,2474.92,2643.79,2282.59,2705.42z"/>
						</g>
						<g>
							<path class="st7" d="M2166.82,2797.24c-14.57,0-28.82-5.07-40.06-14.6l-1.13-0.97c-20.01-17.39-28.35-44.26-21.78-70.14
								c6.73-26.52,27.43-46.66,54.03-52.56c239.83-53.2,429.94-166.24,568.78-258.77c4.99-3.33,11.28-4.01,16.87-1.81
								c5.58,2.2,9.73,6.98,11.12,12.82c20.03,84.35-27.4,161.01-140.99,227.85c-93.3,54.91-234.39,106.02-431.34,156.24l0,0
								C2177.19,2796.6,2171.99,2797.24,2166.82,2797.24z M2177.8,2777.54h0.05H2177.8z M2722.44,2446.89
								c-139.08,90.96-324.79,196.43-556.62,247.85c-13.21,2.93-23.1,12.57-26.46,25.8c-3.19,12.58,0.65,25.08,10.27,33.44
								l0.86,0.74c6.16,5.22,14.69,7.12,22.77,5.06C2547.68,2664.3,2723.92,2564.26,2722.44,2446.89z"/>
						</g>
					</g>
					<g>
						<g>
							<path class="st3" d="M894.68,1749.04c-0.08,3.07-0.17,6.15-0.2,9.23c-0.05,2.78-0.1,5.56-0.09,8.3
								c-0.03,2.63,0,5.22,0.02,7.81c0.19,35.65,2.98,70.72,8.2,105.06c0.5,3.2,1,6.39,1.54,9.64c0.31,1.93,0.66,3.91,1.01,5.9
								c0.39,2.44,0.83,4.88,1.33,7.33c0.56,3.1,1.17,6.22,1.78,9.28c0.44,2.09,0.83,4.13,1.27,6.18c0.71,3.47,1.48,6.9,2.2,10.32
								c0.03,0.15,0.07,0.26,0.1,0.41c0.06,0.36,0.17,0.67,0.22,1.02c0.51,2.25,0.97,4.55,1.55,6.76c0.66,2.72,1.31,5.44,2.02,8.16
								c0.47,1.85,0.94,3.65,1.36,5.44c0.95,3.55,1.85,7.1,2.81,10.6c0.04,0.06,0.04,0.1,0.03,0.15c0.96,3.5,1.92,6.96,2.93,10.42
								c1.01,3.46,2.07,6.97,3.13,10.44c1.06,3.47,2.17,6.94,3.28,10.41c0.07,0.26,0.14,0.47,0.21,0.72
								c1.04,3.21,2.13,6.44,3.18,9.6c1.17,3.43,2.34,6.81,3.56,10.19c3.68,10.36,7.63,20.6,11.74,30.77
								c1.34,3.25,2.73,6.46,4.07,9.66c0.27,0.63,0.54,1.26,0.77,1.84c2.58,6.04,5.27,12,8.02,17.92c0.86,1.85,1.69,3.64,2.55,5.49
								c1.02,2.17,2.04,4.38,3.16,6.56c4.32,8.9,8.84,17.72,13.52,26.46c3.06,5.76,6.23,11.47,9.46,17.15
								c5.69,9.86,11.54,19.55,17.62,29.11c1.91,3.02,3.88,6.01,5.85,8.99c3.93,5.96,7.92,11.88,12.02,17.72
								c2.02,2.94,4.1,5.83,6.18,8.73c2.13,2.85,4.21,5.75,6.34,8.6c10.66,14.26,21.81,28.19,33.48,41.59
								c14.01,16.17,28.69,31.69,44.06,46.49c5.05,4.96,10.27,9.84,15.54,14.62c5.27,4.79,10.6,9.53,16,14.13
								c2.16,1.86,4.27,3.67,6.43,5.48c3.42,2.86,6.86,5.68,10.33,8.5c2.67,2.12,5.34,4.25,8.01,6.37
								c5.62,4.43,11.3,8.72,17.04,12.97c8.61,6.35,17.35,12.51,26.3,18.5c2.71,1.83,5.46,3.67,8.18,5.45
								c0.88,0.56,1.7,1.11,2.58,1.66c2.4,1.54,4.79,3.08,7.24,4.58c9.54,6.07,19.27,11.85,29.17,17.47
								c2.65,1.47,5.26,2.89,7.91,4.37c3.12,1.73,6.29,3.42,9.46,5.11c8.64,4.56,17.39,8.98,26.22,13.17l0.05,0.01
								c1.4,0.72,2.81,1.4,4.27,2.07c2.72,1.28,5.5,2.58,8.28,3.82c3.3,1.51,6.6,2.96,9.9,4.42c3.77,1.66,7.6,3.29,11.43,4.91
								c1.89,0.78,3.79,1.52,5.73,2.31c3.55,1.44,7.16,2.88,10.76,4.28c3.47,1.33,6.98,2.66,10.46,3.94
								c3.99,1.49,7.94,2.93,11.95,4.32c3.43,1.22,6.91,2.4,10.41,3.54c2.77,0.94,5.59,1.84,8.42,2.74
								c1.67,0.56,3.35,1.06,5.03,1.57c7.14,2.23,14.29,4.32,21.45,6.31c3.31,0.96,6.59,1.82,9.91,2.68
								c3.08,0.83,6.12,1.61,9.21,2.34c2.75,0.69,5.46,1.33,8.21,1.97c2.76,0.64,5.51,1.28,8.27,1.88
								c5.51,1.28,11.09,2.43,16.63,3.51c8.35,1.64,16.77,3.18,25.26,4.54c2.83,0.45,5.62,0.85,8.45,1.3
								c28.28,4.22,57.12,6.77,86.37,7.63c11.75,0.32,23.39,0.38,35.01,0.18c0.15,0.02,0.29,0.04,0.45,0.01
								c5.64-0.14,11.28-0.29,16.93-0.53c0.2,0.02,0.45,0.01,0.7-0.01c7.91-0.36,15.78-0.87,23.61-1.44
								c1.1-0.01,2.21-0.12,3.32-0.28c5.03-0.42,10.01-0.84,15-1.36c2.96-0.23,5.89-0.56,8.82-0.94c2.83-0.34,5.66-0.69,8.49-1.03
								c5.66-0.69,11.28-1.48,16.86-2.33c2.83-0.34,5.62-0.79,8.42-1.29c0.66-0.12,1.38-0.28,2.09-0.39
								c333.97-55.26,593.07-340.56,603.23-691.66c11.57-398.79-302.33-731.4-701.12-742.98
								c-302.76-8.77-567.4,170.07-682.29,431.25c-1.11,2.5-2.21,4.95-3.27,7.45c-1.06,2.51-2.12,5.01-3.18,7.52
								c-0.31,0.86-0.65,1.66-1.01,2.51c-1.49,3.6-2.94,7.2-4.34,10.85c-5.34,13.71-10.31,27.62-14.8,41.74
								c-0.65,2.01-1.3,4.07-1.91,6.13c-1.71,5.36-3.27,10.69-4.8,16.12c-0.51,1.68-0.97,3.36-1.43,5.1
								c-0.87,3.03-1.71,6.11-2.49,9.19c-0.92,3.37-1.79,6.79-2.61,10.17c-1.38,5.45-2.66,10.96-3.84,16.49
								c-1.24,5.52-2.42,11.04-3.51,16.63c-0.01,0.1-0.03,0.24-0.1,0.39c-0.48,2.68-1.01,5.35-1.49,7.97
								c-0.87,4.62-1.7,9.24-2.43,13.88c-0.32,1.8-0.59,3.56-0.87,5.41c-0.54,3.17-1,6.39-1.45,9.62
								C897.87,1693.42,895.48,1721.03,894.68,1749.04z"/>
						</g>
						<g>
							<path class="st3" d="M894.68,1749.04c-0.08,3.07-0.17,6.15-0.2,9.23c-0.05,2.78-0.1,5.56-0.09,8.3
								c-0.03,2.63,0,5.22,0.02,7.81c0.09,12.85,0.49,25.63,1.25,38.32c1.28,22.5,3.62,44.78,6.96,66.74c0.5,3.2,1,6.39,1.54,9.64
								c0.31,1.93,0.66,3.91,1.01,5.9c0.39,2.44,0.83,4.88,1.33,7.33c0.56,3.1,1.17,6.22,1.78,9.28c0.44,2.09,0.83,4.13,1.27,6.18
								c0.71,3.47,1.48,6.9,2.2,10.32c0.03,0.15,0.07,0.26,0.1,0.41c0.06,0.36,0.17,0.67,0.22,1.02c0.51,2.25,0.97,4.55,1.55,6.76
								c0.66,2.72,1.31,5.44,2.02,8.16c0.47,1.85,0.94,3.65,1.36,5.44c0.95,3.55,1.85,7.1,2.81,10.6c0.04,0.06,0.04,0.1,0.03,0.15
								c0.96,3.5,1.92,6.96,2.93,10.42c1.01,3.46,2.07,6.97,3.13,10.44c1.06,3.47,2.17,6.94,3.28,10.41
								c0.07,0.26,0.14,0.47,0.21,0.72c1.04,3.21,2.13,6.44,3.18,9.6c1.17,3.43,2.34,6.81,3.56,10.19
								c3.68,10.36,7.63,20.6,11.74,30.77c1.34,3.25,2.73,6.46,4.07,9.66c0.27,0.63,0.54,1.26,0.77,1.84
								c2.58,6.04,5.27,12,8.02,17.92c0.86,1.85,1.69,3.64,2.55,5.49c1.02,2.17,2.04,4.38,3.16,6.56
								c4.32,8.9,8.84,17.72,13.52,26.46c3.06,5.76,6.23,11.47,9.46,17.15c5.69,9.86,11.54,19.55,17.62,29.11
								c1.91,3.02,3.88,6.01,5.85,8.99c3.93,5.96,7.92,11.88,12.02,17.72c2.02,2.94,4.1,5.83,6.18,8.73
								c2.13,2.85,4.21,5.75,6.34,8.6c10.66,14.26,21.81,28.19,33.48,41.59c14.01,16.17,28.69,31.69,44.06,46.49
								c5.05,4.96,10.27,9.84,15.54,14.62c5.27,4.79,10.6,9.53,16,14.13c2.16,1.86,4.27,3.67,6.43,5.48
								c3.42,2.86,6.86,5.68,10.33,8.5c2.67,2.12,5.34,4.25,8.01,6.37c5.62,4.43,11.3,8.72,17.04,12.97
								c8.61,6.35,17.35,12.51,26.3,18.5c2.71,1.83,5.46,3.67,8.18,5.45c0.88,0.56,1.7,1.11,2.58,1.66c2.4,1.54,4.79,3.08,7.24,4.58
								c9.54,6.07,19.27,11.85,29.17,17.47c2.65,1.47,5.26,2.89,7.91,4.37c3.12,1.73,6.29,3.42,9.46,5.11
								c8.64,4.56,17.39,8.98,26.22,13.17l0.05,0.01c1.4,0.72,2.81,1.4,4.27,2.07c2.72,1.28,5.5,2.58,8.28,3.82
								c3.3,1.51,6.6,2.96,9.9,4.42c3.77,1.66,7.6,3.29,11.43,4.91c1.89,0.78,3.79,1.52,5.73,2.31c3.55,1.44,7.16,2.88,10.76,4.28
								c3.47,1.33,6.98,2.66,10.46,3.94c3.99,1.49,7.94,2.93,11.95,4.32c3.43,1.22,6.91,2.4,10.41,3.54
								c2.77,0.94,5.59,1.84,8.42,2.74c1.67,0.56,3.35,1.06,5.03,1.57c7.14,2.23,14.29,4.32,21.45,6.31
								c3.31,0.96,6.59,1.82,9.91,2.68c3.08,0.83,6.12,1.61,9.21,2.34c2.75,0.69,5.46,1.33,8.21,1.97c2.76,0.64,5.51,1.28,8.27,1.88
								c5.51,1.28,11.09,2.43,16.63,3.51c8.35,1.64,16.77,3.18,25.26,4.54c2.83,0.45,5.62,0.85,8.45,1.3
								c28.28,4.22,57.12,6.77,86.37,7.63c11.75,0.32,23.39,0.38,35.01,0.18c0.15,0.02,0.29,0.04,0.45,0.01
								c5.64-0.14,11.28-0.29,16.93-0.53c0.2,0.02,0.45,0.01,0.7-0.01c7.91-0.36,15.78-0.87,23.61-1.44
								c1.1-0.01,2.21-0.12,3.32-0.28c5.03-0.42,10.01-0.84,15-1.36c2.96-0.23,5.89-0.56,8.82-0.94c2.83-0.34,5.66-0.69,8.49-1.03
								c5.66-0.69,11.28-1.48,16.86-2.33c2.83-0.34,5.62-0.79,8.42-1.29c0.66-0.12,1.38-0.28,2.09-0.39
								c275.15-45.52,499.44-247.2,575.62-513.15c16.29-56.88,25.83-116.64,27.62-178.51c11.57-398.79-302.33-731.4-701.12-742.98
								c-302.76-8.77-567.4,170.07-682.29,431.25c-1.11,2.5-2.21,4.95-3.27,7.45c-1.06,2.51-2.12,5.01-3.18,7.52
								c-0.31,0.86-0.65,1.66-1.01,2.51c-1.49,3.6-2.94,7.2-4.34,10.85c-5.34,13.71-10.31,27.62-14.8,41.74
								c-0.65,2.01-1.3,4.07-1.91,6.13c-1.71,5.36-3.27,10.69-4.8,16.12c-0.51,1.68-0.97,3.36-1.43,5.1
								c-0.87,3.03-1.71,6.11-2.49,9.19c-0.92,3.37-1.79,6.79-2.61,10.17c-1.38,5.45-2.66,10.96-3.84,16.49
								c-1.24,5.52-2.42,11.04-3.51,16.63c-0.01,0.1-0.03,0.24-0.1,0.39c-0.48,2.68-1.01,5.35-1.49,7.97
								c-0.87,4.62-1.7,9.24-2.43,13.88c-0.32,1.8-0.59,3.56-0.87,5.41c-0.54,3.17-1,6.39-1.45,9.62
								C897.87,1693.42,895.48,1721.03,894.68,1749.04z"/>
						</g>
						<g>
							<path class="st19" d="M895.65,1812.7c1.28,22.5,3.62,44.78,6.96,66.74c0.5,3.2,1,6.39,1.54,9.64
								c0.31,1.93,0.66,3.91,1.01,5.9c0.39,2.44,0.83,4.88,1.33,7.33c0.56,3.1,1.17,6.22,1.78,9.28c0.44,2.09,0.83,4.13,1.27,6.18
								c0.71,3.47,1.48,6.9,2.2,10.32c0.03,0.15,0.07,0.26,0.1,0.41c0.06,0.36,0.17,0.67,0.22,1.02c0.51,2.25,0.97,4.55,1.55,6.76
								c0.66,2.72,1.31,5.44,2.02,8.16c0.47,1.85,0.94,3.65,1.36,5.44c0.95,3.55,1.85,7.1,2.81,10.6c0.04,0.06,0.04,0.1,0.03,0.15
								c0.96,3.5,1.92,6.96,2.93,10.42c1.01,3.46,2.07,6.97,3.13,10.44c1.06,3.47,2.17,6.94,3.28,10.41
								c0.07,0.26,0.14,0.47,0.21,0.72c1.04,3.21,2.13,6.44,3.18,9.6c1.17,3.43,2.34,6.81,3.56,10.19
								c3.68,10.36,7.63,20.6,11.74,30.77c1.34,3.25,2.73,6.46,4.07,9.66c0.27,0.63,0.54,1.26,0.77,1.84
								c2.58,6.04,5.27,12,8.02,17.92c0.86,1.85,1.69,3.64,2.55,5.49c1.02,2.17,2.04,4.38,3.16,6.56
								c4.32,8.9,8.84,17.72,13.52,26.46c3.06,5.76,6.23,11.47,9.46,17.15c5.69,9.86,11.54,19.55,17.62,29.11
								c1.91,3.02,3.88,6.01,5.85,8.99c3.93,5.96,7.92,11.88,12.02,17.72c2.02,2.94,4.1,5.83,6.18,8.73
								c2.13,2.85,4.21,5.75,6.34,8.6c10.66,14.26,21.81,28.19,33.48,41.59c14.01,16.17,28.69,31.69,44.06,46.49
								c5.05,4.96,10.27,9.84,15.54,14.62c5.27,4.79,10.6,9.53,16,14.13c2.16,1.86,4.27,3.67,6.43,5.48
								c3.42,2.86,6.86,5.68,10.33,8.5c2.67,2.12,5.34,4.25,8.01,6.37c5.62,4.43,11.3,8.72,17.04,12.97
								c8.61,6.35,17.35,12.51,26.3,18.5c2.71,1.83,5.46,3.67,8.18,5.45c0.88,0.56,1.7,1.11,2.58,1.66c2.4,1.54,4.79,3.08,7.24,4.58
								c9.54,6.07,19.27,11.85,29.17,17.47c2.65,1.47,5.26,2.89,7.91,4.37c3.12,1.73,6.29,3.42,9.46,5.11
								c8.64,4.56,17.39,8.98,26.22,13.17l0.05,0.01c1.4,0.72,2.81,1.4,4.27,2.07c2.72,1.28,5.5,2.58,8.28,3.82
								c3.3,1.51,6.6,2.96,9.9,4.42c3.77,1.66,7.6,3.29,11.43,4.91c1.89,0.78,3.79,1.52,5.73,2.31c3.55,1.44,7.16,2.88,10.76,4.28
								c3.47,1.33,6.98,2.66,10.46,3.94c3.99,1.49,7.94,2.93,11.95,4.32c3.43,1.22,6.91,2.4,10.41,3.54
								c2.77,0.94,5.59,1.84,8.42,2.74c1.67,0.56,3.35,1.06,5.03,1.57c7.14,2.23,14.29,4.32,21.45,6.31
								c3.31,0.96,6.59,1.82,9.91,2.68c3.08,0.83,6.12,1.61,9.21,2.34c2.75,0.69,5.46,1.33,8.21,1.97c2.76,0.64,5.51,1.28,8.27,1.88
								c5.51,1.28,11.09,2.43,16.63,3.51c8.35,1.64,16.77,3.18,25.26,4.54c2.83,0.45,5.62,0.85,8.45,1.3
								c28.28,4.22,57.12,6.77,86.37,7.63c11.75,0.32,23.39,0.38,35.01,0.18c0.15,0.02,0.29,0.04,0.45,0.01
								c5.64-0.14,11.28-0.29,16.93-0.53c0.2,0.02,0.45,0.01,0.7-0.01c7.91-0.36,15.78-0.87,23.61-1.44
								c1.1-0.01,2.21-0.12,3.32-0.28c5.03-0.42,10.01-0.84,15-1.36c2.96-0.23,5.89-0.56,8.82-0.94c2.83-0.34,5.66-0.69,8.49-1.03
								c5.66-0.69,11.28-1.48,16.86-2.33c2.83-0.34,5.62-0.79,8.42-1.29c0.66-0.12,1.38-0.28,2.09-0.39
								c275.15-45.52,499.44-247.2,575.62-513.15C2001.31,1952,1302.66,1865.3,895.65,1812.7z"/>
						</g>
						<g>
							<path class="st7" d="M1616.99,2508.86c-7.22,0-14.43-0.1-21.69-0.31c-407.26-11.81-728.98-352.73-717.19-759.99
								c5.72-197.29,87.92-380.53,231.46-515.99c143.54-135.46,331.25-206.92,528.53-201.19
								c407.26,11.8,728.98,352.73,717.19,759.99c0,0,0,0,0,0C2343.7,2191.36,2014.59,2508.86,1616.99,2508.86z M1616.18,1064.18
								c-180.75,0-351.84,67.89-483.86,192.48c-137.11,129.38-215.62,304.42-221.08,492.86c-11.27,389,296.04,714.64,685.03,725.92
								c389.17,11.29,714.64-296.04,725.92-685.03c11.27-389-296.04-714.65-685.03-725.92
								C1630.16,1064.28,1623.15,1064.18,1616.18,1064.18z M2338.74,1790.88h0.05H2338.74z"/>
						</g>
						<g>
							<path class="st7" d="M1617,2508.88c-7.21,0-14.43-0.1-21.69-0.31c-95.26-2.76-187.49-23.34-274.1-61.15
								c-219.31-95.77-379.28-292.51-427.92-526.28c-10.94-52.46-16.12-106.5-15.41-160.62c0.06-4.07,0.11-8.04,0.22-11.95
								c6.06-209.01,100.98-406.53,260.42-541.91c139.3-118.33,316.74-180.66,499.59-175.29c197.28,5.72,380.53,87.92,515.99,231.46
								c135.47,143.55,206.93,331.26,201.21,528.55c0,0,0,0,0,0C2343.72,2191.38,2014.6,2508.88,1617,2508.88z M1616.55,1064.17
								c-167.36,0-328.76,59.14-456.59,167.72c-152.3,129.32-242.96,317.98-248.75,517.62c-0.11,3.74-0.16,7.54-0.21,11.28
								c-0.68,51.85,4.27,103.47,14.72,153.57c46.46,223.29,199.26,411.2,408.74,502.68c82.72,36.11,170.8,55.76,261.81,58.4
								c388.85,11.3,714.66-296.04,725.93-685.05l16.56,0.48l-16.56-0.48c5.46-188.45-62.79-367.74-192.19-504.85
								c-129.39-137.11-304.42-215.62-492.86-221.08C1630.29,1064.27,1623.4,1064.17,1616.55,1064.17z"/>
						</g>
						<g>
							<path class="st7" d="M1617.16,2508.9c-7.29,0-14.57-0.11-21.86-0.32c-88.81-2.6-175.12-20.7-256.53-53.81
								c-5.74-2.29-11.69-4.79-17.6-7.4c-219.24-95.68-379.21-292.41-427.87-526.23c-10.95-52.33-16.15-106.39-15.45-160.66
								l0.07-3.71c0.05-2.76,0.1-5.53,0.2-8.27c2.57-89.26,20.88-176.11,54.41-258.13c34.45-84.34,83.82-160.87,146.73-227.45
								c18.46-19.59,38.4-38.53,59.27-56.27c139.3-118.34,316.87-180.61,499.6-175.29c407.24,11.82,728.97,352.76,717.2,760.01
								c-10.22,352.62-269.88,650.22-617.41,707.64C1698.26,2505.59,1657.73,2508.9,1617.16,2508.9z M1616.57,1064.18
								c-167.38,0-328.78,59.14-456.6,167.72c-19.93,16.95-38.98,35.04-56.62,53.76c-60.11,63.62-107.26,136.7-140.16,217.25
								c-32.03,78.35-49.51,161.32-51.96,246.61c0,0.03,0,0.06,0,0.09c-0.09,2.58-0.14,5.18-0.18,7.78l-0.07,3.67
								c-0.66,51.71,4.31,103.34,14.76,153.33c46.47,223.33,199.27,411.24,408.75,502.66c5.54,2.44,11.07,4.78,16.67,7.01
								c77.84,31.65,160.27,48.94,245.12,51.42c45.73,1.34,91.55-1.73,136.25-9.13c331.94-54.84,579.94-339.1,589.7-675.92
								c11.24-389-296.07-714.66-685.04-725.94C1630.3,1064.28,1623.42,1064.18,1616.57,1064.18z M894.67,1749.04h0.05H894.67z"/>
						</g>
						<g>
							<path class="st7" d="M1617.16,2512.95c-7.33,0-14.65-0.11-21.97-0.32c-89.29-2.61-176.08-20.82-257.94-54.1
								c-5.77-2.3-11.76-4.82-17.71-7.45c-220.42-96.2-381.27-294.01-430.2-529.11c-11.01-52.62-16.24-106.97-15.54-161.53
								l0.07-3.73c0.05-2.78,0.1-5.56,0.2-8.32c2.59-89.74,21-177.07,54.71-259.54c34.64-84.8,84.28-161.75,147.54-228.7
								c18.55-19.69,38.6-38.74,59.58-56.57c140.07-118.99,318.56-181.49,502.35-176.25c409.47,11.88,732.96,354.69,721.13,764.18
								c-10.27,354.55-271.36,653.79-620.8,711.51C1698.7,2509.62,1657.95,2512.95,1617.16,2512.95z M1616.57,1068.23
								c-166.42,0-326.89,58.8-453.97,166.76c-19.81,16.85-38.76,34.84-56.29,53.45c-59.77,63.25-106.65,135.92-139.36,216
								c-31.85,77.9-49.23,160.4-51.67,245.2c0,0.04,0,0.07,0,0.11c-0.09,2.56-0.13,5.14-0.18,7.71l-0.07,3.68
								c-0.66,51.37,4.28,102.71,14.67,152.41c46.21,222.06,198.13,408.88,406.4,499.78c5.51,2.43,11,4.74,16.56,6.96
								c77.41,31.47,159.38,48.66,243.74,51.13c45.51,1.36,91.03-1.71,135.46-9.08c330.03-54.52,576.61-337.15,586.31-672.03
								c11.18-386.77-294.37-710.56-681.11-721.78C1630.23,1068.33,1623.38,1068.23,1616.57,1068.23z M894.67,1749.04h0.05H894.67z"
								/>
						</g>
						<g>
							<path class="st7" d="M1616.4,2512.91c-6.92,0-13.99-0.1-21.16-0.29c-29.76-0.88-59.63-3.54-88.85-7.9l-8.67-1.34
								c-9.03-1.44-17.81-3.01-26.07-4.68c-5.67-1.11-11.48-2.31-17.23-3.65c-2.55-0.54-5.42-1.21-8.29-1.88
								c-2.85-0.66-5.68-1.32-8.55-2.05c-3.01-0.71-6.25-1.53-9.54-2.42c-3.33-0.86-6.8-1.77-10.3-2.79
								c-7.7-2.13-14.92-4.26-21.86-6.43c-1.78-0.54-3.59-1.09-5.4-1.69c-2.69-0.85-5.64-1.8-8.54-2.78
								c-3.4-1.1-7.07-2.34-10.68-3.63c-4.03-1.41-8.12-2.89-12.27-4.44c-3.45-1.27-7.05-2.63-10.6-3.99
								c-3.77-1.46-7.48-2.94-11.13-4.42l-5.85-2.35c-4.11-1.74-8.03-3.4-11.9-5.11c-3.36-1.48-6.75-2.98-10.13-4.52
								c-2.75-1.23-5.66-2.58-8.51-3.93c-1.36-0.63-2.74-1.29-4.12-1.99c-0.08-0.04-0.16-0.07-0.23-0.11
								c-8.7-4.12-17.54-8.56-27.03-13.57l-0.61-0.32c-3.1-1.66-6.2-3.31-9.25-5l-7.91-4.37c-10.92-6.19-20.76-12.08-30.21-18.08
								c-2.2-1.34-4.63-2.91-7.08-4.48l-2.76-1.78c-3.02-1.98-5.84-3.87-8.62-5.74c-8.86-5.93-17.97-12.34-27.01-19.01
								c-6.97-5.16-12.54-9.4-17.59-13.38l-8.07-6.42c-3.71-3.01-7.22-5.89-10.72-8.82c-2.25-1.88-4.44-3.75-6.67-5.68
								c-4.97-4.24-10.36-9-16.4-14.49c-5.93-5.38-11.21-10.35-16.12-15.17c-15.49-14.97-30.73-31.05-45.19-47.68
								c-11.85-13.67-23.43-28.05-34.43-42.77c-1.1-1.47-2.19-2.96-3.29-4.46c-1.01-1.38-2.02-2.76-3.05-4.13l-0.57-0.79
								c-2.05-2.86-4.09-5.71-6.08-8.61c-4.1-5.83-8.2-11.92-12.25-18.05c-2.18-3.31-4.15-6.29-6.06-9.32
								c-6.14-9.67-12.22-19.71-18.05-29.83c-3.38-5.96-6.65-11.84-9.79-17.77c-4.92-9.18-9.56-18.27-13.77-26.94
								c-0.96-1.88-1.86-3.77-2.74-5.65l-3.2-6.88c-2.85-6.15-5.63-12.29-8.3-18.54c-0.09-0.21-0.17-0.41-0.25-0.62l-2.13-5.03
								c-0.86-2.03-1.72-4.06-2.57-6.11c-4.61-11.41-8.55-21.74-12.09-31.7c-1.24-3.43-2.44-6.92-3.65-10.46l-1.1-3.3
								c-0.73-2.18-1.46-4.38-2.18-6.58c-0.11-0.35-0.21-0.7-0.31-1.06c0,0,0,0,0-0.01c0-0.02-0.01-0.04-0.01-0.06
								c-1.11-3.45-2.21-6.9-3.26-10.35c-1.08-3.54-2.17-7.14-3.2-10.68c-1.04-3.57-2.04-7.14-3.03-10.76
								c-0.05-0.19-0.1-0.38-0.15-0.57c-0.51-1.88-1.01-3.78-1.5-5.68l-1.22-4.6c-0.06-0.21-0.11-0.43-0.16-0.64
								c-0.29-1.22-0.6-2.44-0.92-3.69l-0.58-2.31c-1.17-4.84-2.34-9.67-3.43-14.54c-0.1-0.36-0.2-0.72-0.27-1.08
								c-0.73-3.3-1.43-6.59-2.11-9.88l-1.51-7.32c-0.67-3.33-1.3-6.58-1.88-9.83c-0.46-2.27-0.95-4.97-1.39-7.66l-0.09-0.5
								c-0.32-1.84-0.64-3.67-0.93-5.46c-0.47-2.83-0.93-5.76-1.38-8.68l-0.16-1.04c-5.43-35.66-8.27-72.02-8.45-108.13
								c-0.03-2.61-0.06-5.36-0.02-8.15c-0.01-1.83-0.01-4,0.04-6.11c-0.01-0.16,0.01-0.79,0.03-1.43l0.02-0.65
								c0.03-3.04,0.11-5.97,0.19-8.89l0.02-0.77c0-0.01,0-0.02,0-0.04c0.82-28.56,3.29-57.18,7.32-85.06
								c0.51-3.64,0.98-6.94,1.54-10.18c0.23-1.55,0.51-3.41,0.86-5.33c0.75-4.77,1.6-9.53,2.5-14.29l1.46-7.81
								c0.07-0.41,0.16-0.82,0.26-1.23c1.1-5.58,2.29-11.11,3.52-16.63c1.2-5.58,2.54-11.34,3.97-17.03
								c0.82-3.38,1.74-6.99,2.71-10.54c0.74-2.95,1.64-6.25,2.57-9.49c0.41-1.54,0.92-3.42,1.48-5.29
								c1.5-5.34,3.12-10.9,4.91-16.49c0.51-1.75,1.22-3.98,1.91-6.15c4.45-13.97,9.58-28.43,15.22-42.93
								c1.43-3.72,2.94-7.49,4.5-11.26c0.02-0.05,0.22-0.52,0.24-0.57c0.13-0.31,0.26-0.61,0.38-0.93c0.12-0.34,0.31-0.83,0.45-1.16
								l3.18-7.51c0.89-2.11,1.83-4.23,2.77-6.36l0.63-1.42c71.43-158.58,216.31-274.83,387.61-311.08
								c61.27-12.98,124.51-18.64,188.06-16.77c199.26,5.77,384.56,83.74,521.76,219.55c137.57,136.17,210.36,314.15,204.94,501.15
								c-0.52,17.68,0.52,35.62,1.61,54.62c2.14,37.16,4.35,75.58-5.98,111.82c-71.86,252.17-251.75,424.29-493.67,472.43
								c-0.51,0.14-1.02,0.26-1.54,0.37c-0.94,0.19-1.87,0.32-2.8,0.44c-2.89,0.51-5.77,0.96-8.69,1.32
								c-5.67,0.86-11.4,1.67-17.16,2.37l-8.47,1.03c-3.06,0.4-6.24,0.76-9.47,1.01c-4.86,0.5-9.72,0.92-14.62,1.33
								c-1.56,0.2-3.02,0.33-4.41,0.38c-7.62,0.63-15.36,1.1-23.63,1.43c-0.49,0.03-1.1,0-1.67,0.05
								c-5.53,0.22-11.05,0.37-16.57,0.5v-0.01c-0.27,0.01-0.58,0.03-0.83,0.01C1626.19,2512.87,1621.34,2512.91,1616.4,2512.91z
								 M1735.49,2482.56h0.05H1735.49z M1313.52,2402.96c0.45,0.19,0.9,0.4,1.33,0.62c1.15,0.6,2.31,1.15,3.52,1.7
								c2.7,1.27,5.34,2.5,7.99,3.69c3.36,1.54,6.58,2.96,9.8,4.38c3.7,1.64,7.43,3.21,11.16,4.79l5.44,2.18
								c3.45,1.4,6.96,2.8,10.46,4.16c3.31,1.26,6.74,2.57,10.13,3.81c3.96,1.48,7.76,2.87,11.62,4.21c3.37,1.2,6.67,2.32,9.98,3.39
								c2.92,0.99,5.61,1.84,8.3,2.7c1.72,0.57,3.17,1.01,4.62,1.45c6.82,2.13,13.63,4.13,21.13,6.21c3.36,0.98,6.45,1.78,9.59,2.59
								c3.05,0.82,5.88,1.55,8.77,2.23c2.92,0.73,5.49,1.34,8.12,1.95c2.68,0.62,5.32,1.24,7.96,1.81
								c5.61,1.31,10.96,2.4,16.26,3.44c7.81,1.58,16.04,3.05,24.52,4.4l8.47,1.31c27.39,4.09,55.63,6.6,83.71,7.42
								c11.68,0.31,23.13,0.36,33.97,0.13c0.24,0,0.49,0,0.73,0c5.4-0.14,10.8-0.27,16.21-0.5c0.26-0.01,0.52-0.01,0.79-0.01
								c7.96-0.31,15.38-0.76,22.66-1.38c0.49-0.04,0.97-0.07,1.46-0.07c0.22-0.01,0.47-0.05,0.73-0.09
								c0.38-0.05,0.77-0.09,1.15-0.13c4.88-0.41,9.72-0.82,14.57-1.33c0.2-0.02,0.4-0.03,0.59-0.05c2.6-0.2,5.16-0.49,7.73-0.83
								l8.63-1.05c5.47-0.66,10.89-1.43,16.26-2.25c0.21-0.03,0.42-0.06,0.63-0.09c2.45-0.3,4.86-0.69,7.28-1.12
								c0.31-0.05,0.62-0.1,0.92-0.14c0.07-0.02,0.14-0.03,0.21-0.05c0.2-0.04,0.39-0.08,0.59-0.12
								c226.85-44.67,395.72-206.34,463.32-443.54c8.42-29.53,6.5-62.86,4.47-98.15c-1.09-19.04-2.23-38.72-1.67-58.18
								c5.09-175.45-63.36-342.6-192.73-470.65c-129.75-128.43-305.17-202.17-493.95-207.64c-60.25-1.73-120.24,3.59-178.33,15.9
								c-158.49,33.54-292.51,141.04-358.51,287.57l-0.6,1.35c-0.83,1.88-1.67,3.74-2.46,5.63l-3,7.09
								c-0.32,0.85-0.66,1.69-1.02,2.53c-1.54,3.72-2.92,7.16-4.26,10.64c-5.38,13.8-10.21,27.43-14.41,40.62
								c-0.61,1.89-1.21,3.78-1.76,5.68c-1.79,5.6-3.28,10.7-4.74,15.9c-0.54,1.82-0.95,3.31-1.36,4.84
								c-0.92,3.2-1.69,6.06-2.42,8.92c-0.96,3.54-1.79,6.78-2.56,9.98c-1.36,5.39-2.59,10.66-3.72,15.94
								c-1.24,5.53-2.38,10.87-3.44,16.28l0,0c-0.05,0.27-0.11,0.54-0.18,0.81l-1.37,7.29c-0.86,4.54-1.65,8.94-2.33,13.36
								c-0.02,0.17-0.05,0.34-0.08,0.51c-0.29,1.59-0.53,3.15-0.77,4.79c-0.56,3.27-0.96,6.14-1.36,9.01c0,0.03-0.07,0.48-0.07,0.51
								c-3.81,26.33-6.14,53.35-6.91,80.34l-0.02,0.74c-0.07,2.71-0.15,5.41-0.18,8.12l-0.05,2.2c-0.05,2.23-0.04,4.04-0.03,5.81
								c-0.03,2.76,0,5.2,0.02,7.63c0.18,34.24,2.86,68.58,7.97,102.19l0.15,0.97c0.43,2.78,0.87,5.56,1.34,8.38
								c0.28,1.73,0.56,3.36,0.85,4.99l0.13,0.75c0.4,2.43,0.79,4.61,1.23,6.81c0.62,3.4,1.2,6.36,1.78,9.29l1.46,7.09
								c0.59,2.8,1.18,5.61,1.8,8.42c0.1,0.36,0.19,0.72,0.27,1.07c1.09,4.95,2.29,9.87,3.48,14.78l0.45,1.8
								c0.37,1.42,0.72,2.82,1.05,4.22l1.19,4.48c0.5,1.91,1,3.82,1.51,5.71h0c0.04,0.14,0.07,0.28,0.11,0.42
								c0.9,3.28,1.8,6.53,2.75,9.78c0.99,3.38,2.02,6.81,3.06,10.19c1.04,3.38,2.11,6.76,3.2,10.14c0.1,0.31,0.2,0.63,0.28,0.95
								c0.65,1.99,1.31,3.98,1.97,5.96l1.07,3.22c1.07,3.16,2.2,6.42,3.38,9.7c3.37,9.48,7.11,19.28,11.46,30.03
								c0.73,1.78,1.54,3.67,2.33,5.55l1.64,3.87c0.32,0.75,0.59,1.37,0.82,1.95c2.47,5.76,5.03,11.45,7.65,17.09l3.14,6.75
								c0.71,1.5,1.42,3.03,2.19,4.53c0.08,0.15,0.16,0.3,0.23,0.46c3.99,8.24,8.41,16.89,13.14,25.72c3,5.64,6.07,11.19,9.2,16.7
								c5.47,9.49,11.25,19.04,17.09,28.24c1.79,2.84,3.62,5.6,5.44,8.36c4.03,6.12,7.91,11.88,11.89,17.54
								c1.96,2.85,3.85,5.49,5.75,8.13l0.32,0.45c0.86,1.14,1.95,2.63,3.05,4.13c1.01,1.38,2.02,2.76,3.05,4.13
								c10.41,13.93,21.35,27.53,32.54,40.43c13.66,15.72,28.07,30.92,42.81,45.17c4.65,4.56,9.54,9.16,15.07,14.18
								c5.12,4.65,10.29,9.25,15.53,13.72c2.16,1.86,4.2,3.6,6.29,5.36c3.33,2.78,6.68,5.53,10.08,8.29l7.87,6.25
								c5.39,4.26,10.91,8.41,16.47,12.53c8.52,6.27,17.11,12.32,25.51,17.94c2.69,1.82,5.38,3.6,8.02,5.34l2.34,1.51
								c2.52,1.63,4.7,3.03,6.92,4.39c9.16,5.81,18.41,11.35,28.58,17.11l7.75,4.28c2.84,1.58,5.72,3.11,8.59,4.64l0.55,0.29
								C1297.47,2395.11,1305.58,2399.18,1313.52,2402.96z M1650.71,2471.18c0.01,0,0.02,0,0.03,0
								C1650.73,2471.18,1650.72,2471.18,1650.71,2471.18z M1647.27,2471.07c0,0-0.01,0-0.02,0
								C1647.26,2471.07,1647.27,2471.07,1647.27,2471.07z"/>
						</g>
						<g>
							<path class="st7" d="M894.68,1749.04c-0.08,3.07-0.17,6.15-0.2,9.23c-0.01,0.84-0.05,1.64-0.05,2.43
								c-0.04,1.94-0.04,3.93-0.03,5.87c-0.03,2.63,0,5.22,0.02,7.81c0.19,35.65,2.98,70.72,8.2,105.06c0.5,3.2,1,6.39,1.54,9.64
								c0.31,1.93,0.66,3.91,1.01,5.9c0.39,2.44,0.83,4.88,1.33,7.33c0.56,3.1,1.17,6.22,1.78,9.28c0.44,2.09,0.83,4.13,1.27,6.18
								c0.71,3.47,1.48,6.9,2.2,10.32c0.03,0.15,0.07,0.26,0.1,0.41l0.04,0.06c0.01,0.3,0.12,0.66,0.18,0.97
								c0.51,2.25,0.97,4.55,1.55,6.76c0.66,2.72,1.31,5.44,2.02,8.16c0.47,1.85,0.94,3.65,1.36,5.44c0.95,3.55,1.85,7.1,2.81,10.6
								c0.04,0.06,0.04,0.1,0.03,0.15c0.96,3.5,1.92,6.96,2.93,10.42c1.01,3.46,2.07,6.97,3.13,10.44
								c1.06,3.47,2.17,6.94,3.28,10.41c0.07,0.26,0.14,0.47,0.21,0.72c1.04,3.21,2.13,6.44,3.18,9.6
								c1.17,3.43,2.34,6.81,3.56,10.19c3.68,10.36,7.63,20.6,11.74,30.77c1.34,3.25,2.73,6.46,4.07,9.66
								c0.27,0.63,0.54,1.26,0.77,1.84c2.58,6.04,5.27,12,8.02,17.92c0.86,1.85,1.69,3.64,2.55,5.49c1.02,2.17,2.04,4.38,3.16,6.56
								c4.32,8.9,8.84,17.72,13.52,26.46c3.06,5.76,6.23,11.47,9.46,17.15c5.69,9.86,11.54,19.55,17.62,29.11
								c1.91,3.02,3.88,6.01,5.85,8.99c3.93,5.96,7.92,11.88,12.02,17.72c2.02,2.94,4.1,5.83,6.18,8.73
								c2.13,2.85,4.21,5.75,6.34,8.6c10.66,14.26,21.81,28.19,33.48,41.59c14.01,16.17,28.69,31.69,44.06,46.49
								c5.05,4.96,10.27,9.84,15.54,14.62c5.27,4.79,10.6,9.53,16,14.13c2.16,1.86,4.27,3.67,6.43,5.48
								c3.42,2.86,6.86,5.68,10.33,8.5c2.67,2.12,5.34,4.25,8.01,6.37c5.62,4.43,11.3,8.72,17.04,12.97
								c8.61,6.35,17.35,12.51,26.3,18.5c2.71,1.83,5.46,3.67,8.18,5.45c0.88,0.56,1.7,1.11,2.58,1.66
								c1.36,0.88,267.32,131.73,540.98,45.88c227.56-71.39,351.56-281.2,380.98-403.74c11.46-47.75,9.42-104.7,10.9-155.78
								c9.85-338.6-286.09-624.07-648.54-634.6c-232.67-6.7-440.36,100.47-561.8,267.69c-1.49,3.6-2.94,7.2-4.34,10.85
								c-5.34,13.71-10.31,27.62-14.8,41.74c-0.65,2.01-1.3,4.07-1.91,6.13c-1.71,5.36-3.27,10.69-4.8,16.12
								c-0.51,1.68-0.97,3.36-1.43,5.1c-0.87,3.03-1.71,6.11-2.49,9.19c-0.92,3.37-1.79,6.79-2.61,10.17
								c-1.38,5.45-2.66,10.96-3.84,16.49c-1.24,5.52-2.42,11.04-3.51,16.63c-0.01,0.1-0.03,0.24-0.1,0.39
								c-0.48,2.68-1.01,5.35-1.49,7.97c-0.87,4.62-1.7,9.24-2.43,13.88c-0.32,1.8-0.59,3.56-0.87,5.41c-0.54,3.17-1,6.39-1.45,9.62
								C897.87,1693.42,895.48,1721.03,894.68,1749.04z"/>
						</g>
						<g>
							<path class="st7" d="M944.51,2034.86c1.09,2.77,2.18,5.58,3.32,8.35c1.37,3.23,2.74,6.46,4.07,9.64
								c0.3,0.66,0.56,1.27,0.78,1.82c2.6,6.06,5.25,12.04,8.01,17.93c0.87,1.83,1.7,3.66,2.57,5.49c1.02,2.18,2.04,4.42,3.16,6.56
								c4.3,8.91,8.8,17.74,13.51,26.46c3.06,5.79,6.23,11.49,9.45,17.16c5.67,9.84,11.54,19.57,17.63,29.13
								c1.92,3.01,3.85,5.98,5.83,8.95c3.95,5.99,7.95,11.9,12.01,17.76c2.03,2.93,4.11,5.82,6.19,8.71
								c2.13,2.85,4.22,5.74,6.35,8.59c10.67,14.29,21.81,28.21,33.49,41.62c13.98,16.14,28.66,31.65,44.04,46.47
								c5.08,4.94,10.26,9.84,15.56,14.61c5.25,4.77,10.59,9.54,16,14.14c2.16,1.85,4.28,3.69,6.45,5.49
								c3.38,2.86,6.85,5.68,10.33,8.51c2.66,2.1,5.31,4.25,8.01,6.35c5.58,4.42,11.26,8.72,17,12.97
								c8.64,6.34,17.35,12.49,26.32,18.48c2.69,1.86,5.47,3.69,8.17,5.46c0.89,0.54,1.73,1.12,2.57,1.66
								c1.37,0.89,267.35,131.76,540.99,45.86c227.58-71.37,351.57-281.16,381-403.74c7.95-33.18,9.41-70.8,10.03-107.8
								c-88.18,119.83-289.92,298-708.08,292.61C1204.57,2200.97,1045.86,2122.7,944.51,2034.86z"/>
						</g>
						<g>
							<path class="st20" d="M944.51,2034.86c1.09,2.77,2.18,5.58,3.32,8.35c1.37,3.23,2.74,6.46,4.07,9.64
								c0.3,0.66,0.56,1.27,0.78,1.82c2.6,6.06,5.25,12.04,8.01,17.93c0.87,1.83,1.7,3.66,2.57,5.49c1.02,2.18,2.04,4.42,3.16,6.56
								c4.3,8.91,8.8,17.74,13.51,26.46c3.06,5.79,6.23,11.49,9.45,17.16c5.67,9.84,11.54,19.57,17.63,29.13
								c1.92,3.01,3.85,5.98,5.83,8.95c3.95,5.99,7.95,11.9,12.01,17.76c2.03,2.93,4.11,5.82,6.19,8.71
								c2.13,2.85,4.22,5.74,6.35,8.59c10.67,14.29,21.81,28.21,33.49,41.62c13.98,16.14,28.66,31.65,44.04,46.47
								c5.08,4.94,10.26,9.84,15.56,14.61c5.25,4.77,10.59,9.54,16,14.14c2.16,1.85,4.28,3.69,6.45,5.49
								c3.38,2.86,6.85,5.68,10.33,8.51c2.66,2.1,5.31,4.25,8.01,6.35c5.58,4.42,11.26,8.72,17,12.97
								c8.64,6.34,17.35,12.49,26.32,18.48c2.69,1.86,5.47,3.69,8.17,5.46c0.89,0.54,1.73,1.12,2.57,1.66
								c1.37,0.89,267.35,131.76,540.99,45.86c227.58-71.37,351.57-281.16,381-403.74c7.95-33.18,9.41-70.8,10.03-107.8
								c-88.18,119.83-289.92,298-708.08,292.61C1204.57,2200.97,1045.86,2122.7,944.51,2034.86z"/>
						</g>
						<g class="st14">
							<path class="st3" d="M1762.68,1405.61c-12.22-15.65-490.04,12.79-626.62,220.11c-51.62,78.35-128.25,306.03-122.19,321.68
								c-30.38-78.45-28.25-174.64-18.28-251.99c14.78-114.59,83.54-215.41,185.59-269.56
								C1324.27,1349.92,1527.22,1323.52,1762.68,1405.61z"/>
						</g>
						<g class="st14">
							
								<ellipse transform="matrix(0.0411 -0.9992 0.9992 0.0411 -0.9733 3676.4983)" class="st3" cx="1914.97" cy="1838.76" rx="113.66" ry="98.95"/>
						</g>
						<g class="st14">
							
								<ellipse transform="matrix(0.9987 -0.0519 0.0519 0.9987 -103.8252 102.4141)" class="st3" cx="1919.72" cy="2050.01" rx="40.84" ry="46.95"/>
						</g>
						<g>
							<g>
								<g>
									<path class="st3" d="M2371.5,1692.67l-41.51,281.55l-25.86,175.37l-98.79,1.83l-9.34,0.16
										c-42.82-7.2-61.13-124.38-40.9-261.5c0.44-3.09,0.94-6.25,1.45-9.34c21.07-132.49,70.86-232.8,112.68-225.69l8.82,3.23
										L2371.5,1692.67z"/>
								</g>
								<g class="st17">
									<path class="st7" d="M2329.99,1974.22l-25.86,175.37l-98.79,1.83l-9.34,0.16c-42.82-7.2-61.13-124.38-40.9-261.5
										c0.44-3.09,0.94-6.25,1.45-9.34l7.01-16.08c0,0,8.45,59.82,35.9,69.91c29.04,10.73,53.33-59.27,53.33-59.27
										L2329.99,1974.22z"/>
								</g>
							</g>
							<g>
								<path class="st7" d="M2196.02,2168.17c-0.93,0-1.86-0.08-2.77-0.23c-61.38-10.42-73.88-148.87-54.51-280.25
									c16.96-115.02,54.6-208.72,95.91-238.71c15.35-11.15,28.78-11.76,37.37-10.3c1.01,0.17,2.01,0.44,2.97,0.79l102.25,37.66
									c7.36,2.71,11.81,10.2,10.66,17.96l-67.37,456.94c-1.18,8.01-7.98,13.99-16.08,14.14l-108.11,1.99
									C2196.23,2168.17,2196.12,2168.17,2196.02,2168.17z M2265.03,1671.23c-3.08,0-6.74,1.53-10.92,4.56
									c-28.18,20.46-65.61,101.48-82.6,216.74c-9.55,64.71-10.68,126.68-3.21,174.47c6.75,43.15,19.39,64.95,29.37,68.02
									l92.12-1.7l63.36-429.74l-87.82-32.34C2265.24,1671.23,2265.13,1671.23,2265.03,1671.23z"/>
							</g>
							<g>
								<path class="st3" d="M2413.29,1900.31c0,0-0.07,0.07-0.07,0.15c-1.03,10.78-2.4,21.71-4.04,32.85
									c-18.59,126.13-65.6,223.02-105.03,216.28c-38.24-6.49-55.33-108.37-39.16-230.02c0.45-3.47,0.97-7,1.49-10.54
									c18.59-126.13,65.66-223.02,105.04-216.35C2407.43,1698.8,2424.58,1788.82,2413.29,1900.31z"/>
							</g>
							<g class="st17">
								<path class="st7" d="M2413.21,1900.46c-1.03,10.78-2.4,21.71-4.04,32.85c-18.59,126.13-65.6,223.02-105.03,216.28
									c-38.24-6.49-55.33-108.37-39.16-230.02c12.97,46.1,41.54,127.92,77.6,108.44
									C2363.63,2016.57,2392.22,1953.46,2413.21,1900.46z"/>
							</g>
							<g>
								<path class="st7" d="M2307.95,2166.49c-2.43,0-4.63-0.22-6.57-0.55c-57.33-9.74-69.18-137.83-51.27-259.32
									c15.65-106.17,50.51-192.73,88.79-220.53c14.52-10.54,27.3-11.09,35.41-9.71c57.33,9.74,69.18,137.83,51.27,259.32l0,0
									c-15.65,106.17-50.51,192.73-88.79,220.53C2325.73,2164.25,2315.7,2166.49,2307.95,2166.49z M2367.66,1708.94
									c-3.16,0-6.74,2.08-9.31,3.95c-25.71,18.67-59.9,92.87-75.48,198.56c-20.27,137.45,5.25,218.64,24.05,221.83
									c3.43,0.57,7.53-1.78,10.39-3.86c25.72-18.67,59.9-92.87,75.48-198.56l0,0c20.27-137.44-5.25-218.64-24.05-221.83
									C2368.4,1708.97,2368.03,1708.94,2367.66,1708.94z"/>
							</g>
						</g>
					</g>
				</g>
			</g>
		</g>
	</g>
</g>
</svg>
